<?xml version="1.0" standalone="no"?>
<!DOCTYPE svg PUBLIC "-//W3C//DTD SVG 20010904//EN"
 "http://www.w3.org/TR/2001/REC-SVG-20010904/DTD/svg10.dtd">
<svg version="1.0" xmlns="http://www.w3.org/2000/svg"
 width="802.000000pt" height="946.000000pt" viewBox="0 0 802.000000 946.000000"
 preserveAspectRatio="xMidYMid meet">

<g transform="translate(0.000000,946.000000) scale(0.100000,-0.100000)"
fill="#000000" stroke="none">
<path d="M0 4730 l0 -4730 4010 0 4010 0 0 4730 0 4730 -4010 0 -4010 0 0
-4730z m4345 4010 c3 -5 1 -10 -4 -10 -6 0 -11 5 -11 10 0 6 2 10 4 10 3 0 8
-4 11 -10z m-187 -5 c-10 -11 -77 -14 -83 -5 -4 6 13 10 41 10 26 0 45 -2 42
-5z m-105 -15 c17 -1 15 -4 -12 -15 -44 -20 -50 -19 -44 6 4 12 11 18 20 15 8
-3 24 -6 36 -6z m-103 -10 c0 -5 -4 -10 -10 -10 -5 0 -10 5 -10 10 0 6 5 10
10 10 6 0 10 -4 10 -10z m450 -83 c25 -51 44 -97 44 -104 -1 -6 4 -9 11 -7 22
9 56 -128 36 -140 -6 -4 -11 0 -11 9 0 8 -7 18 -15 21 -8 4 -15 11 -15 16 0 6
7 8 15 4 9 -3 15 0 15 9 0 17 -29 9 -47 -13 -7 -9 -16 -13 -19 -9 -4 4 -1 13
5 21 13 16 -1 32 -19 21 -5 -3 -10 1 -10 9 0 9 9 16 20 16 24 0 26 13 5 30
-10 8 -13 23 -10 41 3 16 1 29 -5 29 -5 0 -10 -5 -10 -12 0 -6 -3 -8 -7 -4 -5
4 -8 18 -8 29 0 15 -7 23 -22 25 -24 3 -31 -12 -12 -23 6 -4 7 -19 4 -36 -6
-25 -3 -30 20 -39 20 -7 24 -14 17 -23 -5 -6 -8 -22 -6 -34 2 -12 -1 -25 -6
-28 -6 -3 -10 -13 -10 -22 0 -13 3 -13 15 -3 8 7 15 8 15 3 0 -6 10 -9 23 -9
34 3 41 -5 18 -21 -20 -13 -20 -40 -1 -28 5 3 16 -2 24 -11 19 -18 22 -4 4 15
-11 11 -10 13 5 7 10 -3 23 -6 27 -6 9 0 5 -138 -9 -275 -5 -55 -4 -82 3 -87
6 -4 14 0 18 10 6 16 7 16 7 0 1 -21 31 -25 31 -4 0 8 -7 16 -15 20 -8 3 -12
12 -9 21 3 8 10 13 14 10 4 -2 5 15 3 39 -5 38 -3 45 16 51 11 3 21 13 21 21
0 8 5 14 11 14 5 0 7 -4 4 -10 -3 -5 1 -10 9 -10 20 0 20 11 1 36 -16 22 -20
64 -5 64 6 0 10 -4 10 -10 0 -5 7 -10 15 -10 8 0 12 6 9 13 -3 8 3 20 12 28
13 11 18 11 21 2 3 -7 13 -13 24 -13 16 0 18 -5 13 -26 -5 -20 -3 -25 7 -22
17 5 25 48 10 48 -6 0 -11 7 -11 15 0 18 -36 38 -52 29 -7 -4 -8 -3 -4 4 4 7
1 12 -8 12 -8 0 -18 -9 -21 -20 -7 -23 -20 -26 -32 -7 -5 7 -10 -5 -14 -33 -4
-29 -7 -5 -7 71 -1 74 -6 119 -14 127 -7 7 -9 12 -4 12 4 0 14 -7 23 -15 8 -8
19 -12 25 -9 6 4 5 10 -3 15 -10 6 -4 9 18 9 17 0 35 5 39 12 4 7 3 8 -5 4
-14 -9 -50 29 -85 89 -46 78 -43 107 5 63 17 -14 19 -19 7 -15 -21 7 -22 6 -7
-26 6 -14 18 -24 28 -22 9 1 10 0 3 -2 -21 -7 -7 -28 17 -25 12 2 29 -2 37 -9
17 -14 25 -9 27 20 1 20 27 31 27 11 0 -5 5 -10 12 -10 6 0 40 -14 75 -31 52
-25 62 -34 52 -45 -15 -18 -20 -18 -12 1 4 13 0 15 -22 11 -37 -7 -57 -25 -50
-47 4 -13 1 -19 -9 -19 -9 0 -16 -7 -16 -16 0 -12 6 -15 27 -10 17 5 29 3 34
-6 7 -10 9 -10 9 0 0 6 7 12 15 12 8 0 15 -4 15 -10 0 -5 -5 -10 -11 -10 -5 0
-7 -5 -4 -10 4 -6 10 -8 15 -5 5 3 16 -3 26 -12 17 -17 17 -18 -5 -21 -13 -2
-30 5 -40 17 -10 12 -24 21 -30 21 -7 0 -9 5 -6 10 3 6 1 10 -4 10 -14 0 -14
-4 3 -45 12 -27 19 -33 33 -28 19 7 18 5 -11 -17 -15 -11 -18 -11 -12 -2 6 10
2 13 -15 10 -30 -4 -37 -28 -10 -35 12 -3 21 -9 21 -14 0 -5 11 -15 25 -21 14
-6 25 -16 25 -21 0 -5 -5 -5 -13 1 -17 15 -39 -1 -31 -21 3 -9 10 -14 15 -11
5 3 12 -2 15 -10 3 -9 10 -13 15 -10 5 3 9 -4 9 -15 0 -12 -5 -21 -12 -21 -6
0 -4 -8 6 -19 11 -12 14 -21 7 -26 -6 -3 -11 1 -11 9 0 9 -4 16 -9 16 -5 0
-16 2 -24 5 -10 4 -13 -1 -12 -17 1 -13 8 -22 14 -20 6 1 11 -3 11 -9 0 -14
25 -39 39 -39 6 0 11 4 11 9 0 5 15 8 32 7 22 -1 34 -7 36 -19 4 -18 52 -25
52 -7 0 6 14 10 30 10 17 0 30 -5 30 -10 0 -14 -12 -17 -87 -24 -50 -4 -61 -3
-57 8 3 7 -2 16 -12 20 -12 4 -15 2 -10 -9 3 -8 2 -16 -2 -16 -4 -1 -20 -3
-36 -5 -15 -1 -35 -12 -43 -23 -17 -25 -33 -27 -33 -4 0 15 -2 14 -14 -2 -10
-14 -11 -25 -4 -38 9 -17 12 -17 36 11 23 25 31 29 47 20 10 -6 37 -13 59 -15
56 -4 67 -10 60 -28 -4 -10 0 -15 15 -15 12 0 21 -6 21 -15 0 -12 8 -14 43 -9
28 4 39 3 32 -4 -11 -10 -136 -35 -143 -27 -9 8 11 26 24 21 18 -7 17 4 -1 27
-10 15 -18 17 -32 8 -11 -6 -13 -11 -5 -11 9 0 11 -7 6 -22 -11 -36 -30 -48
-79 -50 -50 -3 -57 -22 -9 -24 17 -1 41 -5 53 -9 17 -5 21 -4 16 4 -5 9 22 12
104 10 61 -1 111 -6 111 -11 0 -5 -19 -9 -42 -7 -24 1 -50 -1 -58 -4 -8 -3
-35 -8 -60 -10 -204 -21 -308 -28 -366 -25 -59 3 -69 6 -73 23 -3 16 -1 17 12
7 10 -9 17 -10 22 -2 9 14 21 13 39 -6 16 -15 36 -12 36 7 0 5 -8 13 -17 16
-9 4 -25 15 -35 25 -21 21 -40 24 -32 4 9 -22 -12 -27 -34 -8 -12 10 -22 32
-24 52 -3 30 0 35 20 38 21 3 32 32 12 32 -5 0 -10 7 -10 15 0 18 -37 20 -42
3 -3 -8 -12 -5 -28 10 -24 22 -46 30 -35 12 3 -5 -1 -10 -9 -10 -9 0 -16 -4
-16 -10 0 -9 23 -14 58 -13 6 1 12 -3 12 -7 0 -5 9 -6 20 -3 14 4 20 0 20 -12
0 -9 -9 -19 -20 -22 -25 -7 -25 -12 -2 -29 16 -12 15 -13 -6 -14 -13 0 -22 -6
-21 -12 4 -31 -2 -47 -21 -53 -11 -4 -18 -11 -14 -16 3 -5 9 -7 14 -4 5 3 11
1 15 -5 4 -6 -6 -10 -24 -10 -24 0 -31 4 -31 20 0 11 -6 20 -14 20 -7 0 -16
-9 -19 -20 -5 -21 -31 -27 -42 -10 -3 5 -12 7 -20 3 -8 -3 -15 -1 -15 4 0 18
13 23 27 11 7 -6 17 -7 21 -3 4 4 1 10 -5 12 -23 8 -14 22 15 21 15 0 32 1 37
3 6 2 21 -3 34 -10 15 -8 21 -9 16 -2 -4 7 -2 17 3 24 7 8 7 17 -1 27 -13 17
-47 23 -47 9 0 -5 -8 -9 -17 -9 -15 0 -16 2 -3 10 13 8 13 10 -1 10 -9 0 -19
10 -22 22 l-6 21 -20 -24 c-10 -13 -17 -26 -14 -29 3 -3 8 1 10 8 4 10 8 10
19 1 25 -21 15 -30 -30 -24 -32 3 -45 1 -49 -9 -3 -8 0 -17 8 -20 8 -3 11 -13
8 -26 -5 -20 -10 -21 -62 -16 -106 12 -141 18 -147 27 -3 5 -16 9 -30 9 -19 0
-24 5 -24 24 0 16 7 26 21 29 12 3 18 10 14 17 -5 8 -13 7 -29 -3 -15 -11 -27
-12 -39 -5 -21 11 -13 28 14 28 21 0 22 1 13 24 -3 8 -12 12 -20 9 -8 -3 -22
1 -32 8 -9 8 -38 25 -64 39 -26 13 -46 26 -46 29 1 3 -2 14 -7 24 -5 12 -14
16 -29 11 -17 -5 -19 -4 -8 7 11 11 20 11 60 -5 26 -10 64 -23 85 -29 37 -11
50 -27 22 -27 -17 0 -20 -16 -5 -25 5 -3 15 5 22 19 6 14 18 26 26 26 21 0 7
12 -15 14 -19 1 -109 51 -131 73 -7 7 -17 13 -22 13 -11 0 -50 41 -50 52 0 4
5 8 11 8 5 0 8 -4 4 -9 -3 -5 -1 -12 5 -16 5 -3 10 -1 10 4 0 6 7 11 15 11 8
0 15 -4 15 -10 0 -5 7 -10 15 -10 9 0 32 -7 52 -15 28 -12 34 -18 25 -27 -16
-16 -15 -28 3 -28 8 0 15 -6 16 -12 0 -7 4 -4 8 7 5 12 4 23 -3 27 -6 5 4 5
22 2 17 -4 32 -3 32 1 0 12 -32 45 -43 45 -5 0 -43 21 -83 47 -69 43 -89 63
-63 63 5 0 7 -5 3 -12 -5 -8 -2 -9 10 -5 10 4 27 2 38 -4 17 -9 18 -13 7 -21
-10 -7 -8 -8 8 -3 13 3 31 1 40 -5 17 -11 17 -11 0 -6 -12 4 -17 2 -14 -6 2
-7 16 -12 31 -10 14 1 26 -2 26 -7 0 -6 7 -8 15 -5 8 3 27 0 42 -8 15 -8 43
-13 61 -12 24 1 32 -2 28 -12 -7 -19 10 -27 31 -15 10 6 12 11 6 11 -7 0 -13
8 -13 18 0 10 -5 23 -11 29 -14 14 10 43 34 43 7 0 14 8 14 18 -1 57 6 82 28
108 14 16 20 31 14 33 -11 3 -33 -14 -35 -27 0 -4 -4 -20 -9 -35 -6 -24 -12
-28 -31 -23 -14 4 -24 2 -24 -4 0 -5 -7 -10 -15 -10 -8 0 -15 7 -15 15 0 8 9
15 21 15 11 0 18 4 14 10 -3 5 -12 7 -20 3 -8 -3 -15 0 -15 6 0 6 5 11 10 11
6 0 10 9 10 20 0 17 5 19 28 15 l27 -6 -27 15 c-15 9 -29 24 -33 35 -4 13 -12
17 -25 14 -26 -7 -26 -23 0 -23 31 0 22 -30 -14 -43 -39 -15 -62 33 -28 60 12
10 13 13 2 10 -8 -2 -23 0 -33 5 -18 9 -18 11 -1 29 17 19 50 27 39 10 -7 -12
4 -19 40 -25 16 -3 32 -11 36 -18 17 -29 38 -53 42 -48 3 3 7 14 9 25 2 16 -2
19 -21 17 -17 -2 -22 2 -17 13 3 9 2 13 -3 10 -5 -3 -12 -1 -16 4 -3 6 4 15
15 21 12 6 50 36 86 66 37 31 64 48 64 40 0 -9 11 -14 35 -14 19 0 35 4 35 9
0 5 -7 9 -15 9 -8 0 -15 4 -15 10 0 5 -7 7 -15 4 -8 -4 -15 -3 -15 1 0 14 42
65 50 60 4 -3 6 4 3 15 -4 16 0 20 18 20 20 -1 31 -16 69 -93z m-515 73 c-11
-5 -29 -8 -40 -8 -16 0 -15 2 5 8 34 11 60 11 35 0z m66 -23 c-18 -4 -36 -6
-39 -3 -8 9 41 24 58 18 9 -4 2 -9 -19 -15z m-105 -9 c5 -8 0 -9 -16 -5 -13 3
-32 2 -42 -4 -11 -6 -18 -6 -18 0 0 20 64 28 76 9z m19 -37 l50 -6 -35 -15
c-19 -7 -38 -18 -41 -22 -3 -5 -18 -10 -32 -12 -15 -1 -30 -6 -33 -9 -11 -10
-24 3 -24 23 0 10 -6 21 -12 23 -7 3 -3 6 8 6 12 1 25 8 28 17 4 11 12 14 24
9 9 -4 40 -10 67 -14z m315 4 c0 -7 -30 -42 -62 -74 -60 -58 -69 -61 -105 -36
-16 12 -22 12 -26 2 -4 -8 -6 -9 -6 0 -1 14 26 43 41 43 5 0 8 -7 4 -15 -3
-10 1 -15 13 -15 10 0 22 7 25 16 4 10 14 14 26 11 27 -7 25 8 -2 20 l-22 10
22 5 c12 4 20 2 16 -3 -3 -5 5 -9 17 -9 16 0 20 5 16 19 -3 14 -1 18 9 14 8
-3 14 0 14 6 0 6 5 11 10 11 6 0 10 -2 10 -5z m-477 -20 c-3 -9 -8 -14 -10
-11 -3 3 -2 9 2 15 9 16 15 13 8 -4z m917 0 c9 -10 9 -15 1 -15 -6 0 -11 5
-11 11 0 6 -7 8 -16 5 -8 -3 -12 -2 -9 4 9 14 21 12 35 -5z m25 -25 c-3 -5
-12 -10 -18 -10 -7 0 -6 4 3 10 19 12 23 12 15 0z m-110 -51 c28 -29 40 -46
28 -40 -13 7 -23 9 -23 5 0 -4 -8 4 -19 17 -19 26 -44 69 -38 69 1 0 25 -23
52 -51z m-805 33 c0 -14 -23 -32 -42 -32 -10 0 -18 5 -18 11 0 6 9 9 20 6 13
-3 20 0 20 9 0 8 5 14 10 14 6 0 10 -4 10 -8z m194 -58 c3 -8 2 -12 -4 -9 -6
3 -10 10 -10 16 0 14 7 11 14 -7z m1101 -14 c12 -19 -12 -10 -31 11 -19 22
-19 22 3 10 12 -6 25 -16 28 -21z m32 -32 c-3 -8 -6 -5 -6 6 -1 11 2 17 5 13
3 -3 4 -12 1 -19z m-260 -10 c-3 -8 -6 -5 -6 6 -1 11 2 17 5 13 3 -3 4 -12 1
-19z m69 -17 c-12 -11 -17 -11 -35 1 -19 14 -19 14 14 14 29 -1 32 -3 21 -15z
m79 -41 c3 -6 -1 -7 -9 -4 -10 4 -16 1 -16 -7 0 -11 -3 -11 -10 1 -8 12 -10
11 -10 -7 0 -27 -15 -30 -24 -6 -4 9 -1 20 6 25 18 11 56 10 63 -2z m133 -31
c-3 -8 -7 -3 -11 10 -4 17 -3 21 5 13 5 -5 8 -16 6 -23z m-1143 0 c-10 -15
-25 -10 -19 6 4 8 10 12 15 9 5 -3 7 -10 4 -15z m-465 -18 c-5 -11 -15 -21
-22 -24 -10 -3 -10 -8 1 -23 14 -18 14 -18 -4 -2 -18 16 -17 18 6 42 29 31 33
32 19 7z m517 3 c3 -8 0 -21 -7 -27 -10 -10 -12 -8 -6 7 4 12 1 23 -6 28 -11
6 -11 8 0 8 7 0 15 -7 19 -16z m63 -4 c0 -22 -8 -25 -30 -10 -13 9 -13 11 0
20 22 15 30 12 30 -10z m1070 -30 c4 -3 10 -16 14 -30 6 -19 5 -21 -3 -10 -10
13 -11 13 -12 0 -1 -25 -18 22 -18 50 1 15 3 19 6 10 3 -8 9 -17 13 -20z
m-1615 10 c3 -5 -1 -10 -10 -10 -9 0 -13 5 -10 10 3 6 8 10 10 10 2 0 7 -4 10
-10z m1449 -9 c18 -7 18 -8 3 -14 -10 -4 -17 -1 -17 6 -1 7 -7 1 -14 -12 -10
-17 -15 -20 -18 -10 -12 33 7 45 46 30z m-926 -39 c-7 -8 -14 -10 -21 -3 -7 7
-6 15 3 26 10 12 15 13 21 3 4 -7 3 -18 -3 -26z m846 17 c-3 -5 3 -10 13 -10
17 -1 17 -2 1 -6 -10 -2 -18 -11 -18 -19 0 -10 -8 -14 -22 -12 -17 2 -24 11
-26 34 -3 29 -1 30 27 26 17 -2 28 -8 25 -13z m-1381 -19 c3 -11 1 -18 -4 -14
-5 3 -9 12 -9 20 0 20 7 17 13 -6z m619 -6 c17 -9 17 -11 -2 -27 -19 -16 -21
-16 -37 3 -12 14 -19 16 -24 8 -5 -7 -11 -9 -15 -5 -10 10 24 34 45 32 9 0 24
-5 33 -11z m-146 -10 c-4 -12 -2 -15 9 -10 8 3 19 -2 24 -13 7 -13 18 -16 41
-13 30 4 31 3 24 -24 -9 -38 -7 -37 -34 -14 -13 11 -30 18 -38 15 -8 -3 -16 3
-19 15 -3 11 -8 18 -12 16 -3 -2 -15 3 -26 11 -16 13 -17 15 -2 10 11 -4 17
-1 17 8 0 8 5 15 11 15 6 0 8 -7 5 -16z m1004 -40 c0 -8 -7 -14 -15 -14 -8 0
-15 5 -15 11 0 6 -5 9 -11 7 -6 -2 -10 -8 -10 -13 1 -15 -51 -26 -66 -13 -18
15 -16 36 3 40 39 7 114 -4 114 -18z m170 9 c0 5 7 2 15 -6 8 -8 20 -44 26
-81 7 -36 16 -66 20 -66 4 0 10 -17 14 -37 4 -21 10 -42 15 -48 4 -5 13 -27
18 -47 8 -29 8 -38 -2 -38 -7 0 -18 24 -25 55 -7 30 -17 57 -22 60 -5 4 -9 14
-9 23 -1 9 -9 35 -20 57 -11 22 -20 47 -20 55 0 8 -7 28 -15 44 -17 31 -20 60
-5 36 5 -8 10 -11 10 -7z m-133 1 c-3 -3 -12 -4 -19 -1 -8 3 -5 6 6 6 11 1 17
-2 13 -5z m-1557 -19 c0 -2 -6 -5 -13 -8 -8 -3 -14 1 -14 8 0 7 6 11 14 8 7
-3 13 -6 13 -8z m1120 -9 c0 -3 -4 -8 -10 -11 -5 -3 -10 -1 -10 4 0 6 5 11 10
11 6 0 10 -2 10 -4z m453 -65 c4 -5 -14 -13 -41 -18 -41 -8 -49 -7 -45 4 8 21
-17 15 -37 -9 -21 -26 -32 -22 -24 9 4 12 16 24 28 26 27 6 109 -2 119 -12z
m-58 -91 c3 -5 -1 -10 -10 -10 -9 0 -13 5 -10 10 3 6 8 10 10 10 2 0 7 -4 10
-10z m-1320 -26 c37 -19 42 -24 20 -19 -16 4 -32 10 -35 14 -3 3 -16 12 -30
18 -14 6 -20 12 -15 12 6 0 33 -11 60 -25z m82 -30 c-3 -3 -12 -4 -19 -1 -8 3
-5 6 6 6 11 1 17 -2 13 -5z m-122 -14 c8 -13 -5 -13 -25 0 -13 8 -13 10 2 10
9 0 20 -4 23 -10z m253 -32 c18 -15 15 -27 -7 -25 -12 1 -17 6 -13 16 4 11 1
13 -12 8 -10 -4 -27 0 -39 9 -21 15 -20 16 18 9 22 -4 46 -11 53 -17z m1155
-19 c-8 -8 -16 -8 -30 0 -16 9 -14 10 12 11 21 0 26 -3 18 -11z m-1278 -9 c3
-5 2 -10 -4 -10 -5 0 -13 5 -16 10 -3 6 -2 10 4 10 5 0 13 -4 16 -10z m1352 4
c-3 -3 -12 -4 -19 -1 -8 3 -5 6 6 6 11 1 17 -2 13 -5z m-2141 -31 c-7 -7 -26
7 -26 19 0 6 6 6 15 -2 9 -7 13 -15 11 -17z m54 1 c11 -13 10 -16 -8 -21 -12
-3 -22 -9 -22 -13 0 -15 40 -22 55 -10 11 9 16 7 25 -10 14 -26 6 -38 -14 -21
-11 9 -15 8 -20 -5 -5 -14 -10 -13 -31 10 -27 29 -28 31 -19 64 7 26 17 28 34
6z m900 6 c0 -5 11 -12 24 -16 32 -8 44 -47 13 -42 -14 2 -21 10 -21 21 1 9
-5 17 -13 17 -8 0 -11 -4 -8 -10 8 -13 -6 -13 -61 1 -24 6 -44 15 -44 20 0 12
27 11 35 -1 7 -12 36 -14 34 -2 -3 17 2 22 21 22 11 0 20 -4 20 -10z m-1083
-62 c26 -35 71 -91 100 -125 57 -69 73 -110 73 -196 l0 -59 -32 20 c-126 78
-344 180 -356 166 -4 -4 -2 -9 5 -11 43 -15 228 -175 258 -223 41 -65 102
-290 78 -290 -5 0 -21 24 -35 53 -80 161 -197 246 -418 302 -156 39 -304 49
-431 30 -95 -14 -119 -20 -108 -28 2 -2 76 -16 164 -31 172 -31 265 -52 278
-65 4 -4 -29 -21 -75 -36 -83 -28 -251 -105 -245 -112 2 -1 26 2 53 8 89 19
166 22 238 9 39 -7 75 -17 80 -21 5 -4 14 -5 21 -2 13 4 75 -22 75 -33 0 -9
-44 8 -53 20 -4 6 -5 -1 -2 -15 7 -28 -15 -55 -38 -46 -8 3 -18 -6 -24 -24 -9
-24 -9 -29 4 -29 14 0 13 -3 -2 -20 -10 -12 -25 -18 -32 -16 -7 3 -16 -2 -21
-11 -8 -14 -12 -14 -41 3 -25 15 -31 24 -26 41 4 16 0 23 -16 28 -16 5 -19 12
-14 32 5 22 3 24 -17 18 -19 -5 -20 -4 -8 5 12 9 12 13 2 17 -9 4 -10 8 -2 18
21 26 -24 31 -54 6 -9 -7 -16 -22 -16 -33 0 -17 3 -18 15 -8 16 13 37 5 33
-13 -2 -7 24 -45 57 -85 l60 -73 21 25 c22 25 43 24 22 -1 -9 -11 -9 -17 3
-24 11 -7 8 -9 -10 -9 -32 0 -19 -13 14 -15 14 0 33 8 43 19 16 18 16 19 -5
14 -26 -7 -34 9 -20 36 9 18 11 18 21 4 7 -9 22 -18 35 -20 20 -3 23 1 26 35
1 20 -2 37 -7 37 -4 0 -8 -7 -8 -15 0 -8 -7 -15 -15 -15 -8 0 -15 7 -15 15 0
8 -4 15 -10 15 -5 0 -7 7 -3 16 4 11 13 14 29 10 17 -5 24 -2 24 9 0 22 28 18
35 -5 8 -25 24 -26 24 -2 1 31 4 52 8 52 7 0 65 -44 97 -74 l31 -29 -35 9
c-52 12 -93 11 -97 -3 -3 -8 4 -13 14 -13 23 0 80 -28 114 -55 36 -29 68 -86
79 -141 22 -108 40 -227 35 -232 -3 -3 -5 5 -5 18 0 13 -3 20 -6 17 -10 -10
-44 12 -44 29 0 8 7 17 15 20 16 7 21 34 6 34 -5 0 -8 14 -6 30 5 36 -12 40
-21 5 -7 -28 -29 -33 -38 -10 -3 8 -15 15 -28 15 -17 0 -19 3 -10 12 18 18 14
31 -8 25 -21 -5 -28 7 -10 18 8 5 7 11 -1 21 -6 7 -15 11 -20 8 -5 -3 -9 -1
-9 4 0 5 -9 12 -20 15 -13 3 -18 11 -14 20 6 16 -10 30 -37 32 -11 1 -15 -4
-11 -13 4 -11 1 -14 -11 -9 -11 4 -14 2 -10 -9 3 -7 10 -14 15 -14 6 0 8 -15
6 -35 -3 -24 1 -36 10 -40 21 -8 27 2 12 20 -25 31 0 26 39 -6 27 -23 39 -40
35 -51 -3 -9 0 -19 6 -23 6 -3 8 -11 4 -16 -8 -14 4 -59 16 -59 6 0 8 13 5 30
-7 38 5 38 27 0 11 -19 13 -30 6 -30 -6 0 -19 -7 -29 -16 -16 -15 -20 -15 -33
-1 -12 12 -13 17 -3 20 9 4 8 8 -3 16 -9 6 -16 6 -18 1 -2 -5 -11 -6 -20 -3
-13 5 -11 0 6 -24 27 -38 52 -59 52 -44 0 6 5 11 11 11 6 0 9 -9 6 -19 -6 -26
30 -62 42 -42 6 9 11 9 15 3 3 -6 2 -14 -4 -17 -6 -4 -8 -15 -5 -25 3 -11 -18
4 -48 33 -205 196 -207 194 -37 -28 41 -55 101 -138 132 -185 143 -218 295
-554 315 -697 8 -63 17 -38 34 95 8 63 16 97 21 88 4 -8 22 -74 40 -147 28
-120 32 -150 32 -289 0 -135 -2 -163 -21 -212 -39 -106 -81 -142 -163 -143
-50 0 -72 9 -245 96 l-190 97 1 33 c0 19 8 106 18 194 10 88 22 203 27 255 5
52 11 115 14 140 l5 45 -14 -30 c-8 -16 -59 -140 -112 -275 -53 -135 -100
-249 -104 -253 -8 -9 -313 188 -343 221 -18 20 -18 22 18 104 21 45 50 112 65
148 15 36 39 91 54 124 44 98 33 96 -44 -9 -56 -78 -182 -227 -186 -222 -3 2
7 31 22 63 14 32 32 73 39 89 7 17 29 64 48 105 61 133 109 251 104 256 -2 3
-27 -28 -54 -68 -130 -192 -198 -287 -201 -278 -3 9 133 288 149 304 5 6 9 16
9 24 0 17 -43 -37 -173 -218 -54 -74 -104 -143 -112 -153 -12 -17 -21 -18
-121 -8 -64 7 -114 17 -122 25 -16 15 -14 21 75 191 32 61 82 162 112 225 30
63 70 146 88 183 l34 69 -164 -167 c-134 -136 -169 -166 -188 -163 -52 7 -36
31 160 232 105 109 113 128 21 54 -213 -170 -296 -228 -330 -228 -16 0 -32 5
-35 10 -26 42 57 141 275 328 80 68 147 129 149 135 2 6 -2 6 -10 -1 -15 -13
-100 -72 -284 -196 -60 -41 -127 -87 -148 -102 -27 -20 -40 -25 -48 -17 -33
33 42 156 173 285 37 36 68 70 68 73 0 9 -65 -29 -200 -116 -88 -57 -106 -65
-113 -52 -11 19 68 101 237 246 65 56 131 112 145 125 l26 23 -45 -22 c-25
-12 -94 -56 -155 -97 -157 -108 -254 -172 -260 -172 -3 0 -5 18 -5 39 0 50 24
105 88 205 28 44 49 82 46 85 -2 3 -39 -29 -82 -71 -96 -95 -118 -107 -143
-81 -31 31 -35 103 -9 157 58 115 255 341 440 504 103 90 285 213 359 242 96
37 476 76 778 79 l152 1 48 -62z m263 35 c0 -10 -4 -14 -8 -8 -4 6 -11 13 -16
18 -5 4 -2 7 7 7 10 0 17 -8 17 -17z m60 -103 c37 -55 118 -148 179 -207 13
-13 20 -23 15 -23 -5 0 -32 22 -59 49 -28 27 -53 47 -57 45 -4 -2 -9 0 -13 6
-3 5 0 10 7 10 10 0 9 3 -2 9 -8 6 -18 7 -23 4 -4 -3 -7 3 -5 13 2 12 -2 18
-11 16 -8 -2 -20 -1 -28 2 -11 4 -11 9 -1 25 9 15 8 22 -5 36 -9 9 -17 20 -17
24 0 4 -9 18 -20 31 -11 13 -20 28 -20 33 0 10 21 -16 60 -73z m1330 59 c0 -6
-4 -7 -10 -4 -5 3 -10 11 -10 16 0 6 5 7 10 4 6 -3 10 -11 10 -16z m3 -39 c-3
-11 -10 -23 -16 -27 -5 -3 -7 -1 -3 5 3 6 -2 12 -11 15 -17 4 -12 8 34 26 0 1
-1 -8 -4 -19z m-1406 -4 c14 9 20 6 30 -14 15 -28 11 -38 -9 -26 -13 8 -41 14
-70 15 -25 0 -33 19 -9 19 12 0 21 6 21 13 0 8 4 7 10 -3 7 -12 13 -12 27 -4z
m4 -83 c0 -11 3 -13 6 -5 4 11 33 18 33 8 0 -23 -14 -35 -30 -26 -20 11 -34
40 -20 40 6 0 10 -8 11 -17z m2749 -67 c158 -27 327 -73 417 -112 161 -71 348
-235 485 -424 100 -139 118 -176 118 -244 0 -47 -4 -60 -29 -89 -29 -32 -96
-76 -104 -67 -8 9 -114 225 -127 260 -8 19 -17 44 -22 55 -7 19 -3 -60 8 -150
l5 -40 -20 37 c-54 96 -49 25 10 -152 22 -63 39 -123 39 -133 0 -9 19 -57 42
-105 49 -99 55 -161 24 -221 l-19 -35 -26 30 c-14 17 -51 61 -81 99 -65 81
-227 273 -248 295 -20 21 8 -34 47 -92 65 -97 191 -301 191 -311 0 -12 -23 12
-140 147 -136 158 -203 230 -213 235 -6 2 -7 0 -5 -5 3 -5 41 -70 85 -144 142
-239 273 -467 273 -474 0 -3 -12 -6 -27 -6 -16 0 -53 -7 -83 -15 -30 -8 -60
-15 -66 -15 -6 0 -33 33 -60 73 l-49 72 -2 -35 c-12 -172 -13 -176 -41 -193
-15 -8 -51 -38 -80 -65 l-54 -50 -13 32 c-11 28 -32 105 -51 191 l-6 30 -9
-25 c-5 -14 -12 -61 -17 -105 l-8 -80 -28 55 c-16 30 -49 100 -73 155 l-44
100 5 -93 c6 -103 42 -270 80 -379 30 -84 32 -129 10 -202 -19 -65 -34 -74
-211 -136 -100 -34 -138 -44 -143 -35 -4 7 -13 44 -19 84 -34 213 -42 281 -48
384 -3 61 -10 112 -15 112 -4 0 -9 -17 -10 -37 -3 -87 4 -376 12 -478 6 -77 5
-114 -3 -123 -13 -16 -107 -65 -107 -56 0 3 16 24 35 47 19 22 35 45 35 51 0
6 -12 65 -26 131 -29 137 -41 331 -27 443 5 39 6 72 2 72 -9 0 -76 -203 -85
-258 -4 -23 -10 -44 -14 -47 -14 -9 -53 169 -54 249 l-1 79 53 32 c82 48 213
189 252 271 19 40 30 77 27 91 -3 17 -1 23 8 19 15 -6 27 17 30 58 2 16 9 32
16 37 34 22 130 42 194 41 39 -1 86 2 105 7 l35 7 -48 8 c-27 4 -65 13 -85 20
-49 17 -207 22 -197 5 5 -8 -1 -9 -21 -5 -33 7 -94 -18 -133 -55 l-23 -22 7
24 c32 108 214 270 350 312 19 6 35 14 35 19 0 14 -82 9 -165 -11 -44 -11 -81
-18 -83 -16 -7 7 82 65 142 94 34 15 86 34 116 42 61 15 202 18 268 6 75 -13
52 8 -90 80 -38 18 -68 39 -68 45 0 11 183 5 243 -8 17 -4 27 -2 27 5 0 10
-60 59 -100 81 -50 29 93 14 213 -22 100 -30 100 -15 -1 50 -147 95 -351 136
-563 114 -62 -6 -114 -10 -116 -9 -1 2 35 25 82 51 75 42 108 66 90 66 -13 0
-184 -41 -228 -54 -26 -9 -45 -11 -43 -7 3 5 45 31 93 58 81 46 138 68 268
105 56 16 67 36 37 66 -29 29 -108 49 -267 67 -77 9 -158 20 -179 25 -40 9
-59 26 -49 43 9 15 190 1 353 -27z m-2700 14 c0 -5 -2 -10 -4 -10 -3 0 -8 5
-11 10 -3 6 -1 10 4 10 6 0 11 -4 11 -10z m40 -15 c0 -19 -17 -28 -26 -14 -5
8 -3 9 6 4 9 -6 10 -2 5 15 -5 15 -4 20 4 16 6 -4 11 -13 11 -21z m55 -35 c3
-5 1 -10 -4 -10 -6 0 -11 5 -11 10 0 6 2 10 4 10 3 0 8 -4 11 -10z m2215 -81
c0 -5 -4 -9 -10 -9 -5 0 -10 7 -10 16 0 8 5 12 10 9 6 -3 10 -10 10 -16z m50
11 c0 -5 -4 -10 -10 -10 -5 0 -10 5 -10 10 0 6 5 10 10 10 6 0 10 -4 10 -10z
m-2096 -26 c3 -8 2 -12 -4 -9 -6 3 -10 10 -10 16 0 14 7 11 14 -7z m2145 -39
c-9 -8 -40 25 -34 35 5 8 12 4 22 -10 8 -12 13 -23 12 -25z m-2209 15 c0 -5
-4 -10 -10 -10 -5 0 -10 5 -10 10 0 6 5 10 10 10 6 0 10 -4 10 -10z m26 -7 c0
-10 4 -18 9 -18 27 -2 65 -16 65 -25 0 -6 -4 -10 -10 -10 -5 0 -10 5 -10 10 0
6 -5 10 -11 10 -8 0 -8 -5 1 -15 7 -8 21 -15 31 -15 11 0 19 -7 19 -16 0 -13
7 -15 35 -11 28 5 35 2 40 -14 5 -14 14 -18 38 -16 18 2 31 9 30 15 -2 6 4 9
12 5 10 -3 13 -12 10 -23 -3 -11 0 -20 7 -23 7 -2 5 -3 -4 -2 -26 4 -33 -14
-12 -30 16 -11 20 -10 31 4 12 16 14 14 17 -11 0 -7 23 -21 50 -30 43 -16 48
-17 42 -3 -4 12 -1 15 12 13 9 -2 17 -10 17 -18 0 -20 24 -35 57 -35 15 -1 31
-4 34 -8 13 -13 25 -7 22 10 -2 11 6 22 20 28 12 5 22 13 22 16 0 3 19 2 43
-3 23 -5 85 -15 137 -22 83 -12 114 -21 55 -17 -11 1 -29 -7 -40 -17 -11 -10
-26 -17 -33 -14 -15 5 -16 -20 0 -36 6 -6 10 -13 7 -16 -14 -13 -297 58 -394
99 -119 50 -144 65 -139 83 4 12 3 13 -3 4 -13 -17 -43 -4 -43 19 0 10 -5 19
-11 19 -5 0 -7 -4 -4 -10 17 -27 -67 19 -106 59 -9 9 -28 24 -42 34 -15 11
-23 25 -20 33 7 20 21 17 19 -3z m2089 7 c3 -5 -1 -10 -10 -10 -9 0 -13 5 -10
10 3 6 8 10 10 10 2 0 7 -4 10 -10z m-1970 -38 c-3 -3 -11 0 -18 7 -9 10 -8
11 6 5 10 -3 15 -9 12 -12z m2071 -3 c-8 -12 -12 -28 -9 -37 4 -10 1 -13 -8
-10 -18 6 -13 39 9 56 23 17 25 15 8 -9z m-56 -4 c15 9 12 -1 -4 -14 -12 -10
-17 -8 -27 11 -11 21 -11 22 4 10 9 -8 21 -11 27 -7z m80 -5 c0 -5 -4 -10 -10
-10 -5 0 -10 5 -10 10 0 6 5 10 10 10 6 0 10 -4 10 -10z m-320 -10 c0 -5 -2
-10 -4 -10 -3 0 -8 5 -11 10 -3 6 -1 10 4 10 6 0 11 -4 11 -10z m133 -5 c11
-7 25 -11 33 -8 8 3 14 1 14 -5 0 -22 -39 -19 -61 4 -24 26 -15 32 14 9z
m-178 -5 c-3 -5 -11 -10 -16 -10 -6 0 -7 5 -4 10 3 6 11 10 16 10 6 0 7 -4 4
-10z m-1715 -10 c0 -5 -2 -10 -4 -10 -3 0 -8 5 -11 10 -3 6 -1 10 4 10 6 0 11
-4 11 -10z m1840 -55 c0 -18 -7 -38 -15 -45 -13 -11 -15 -5 -14 38 1 38 5 49
15 45 8 -3 14 -19 14 -38z m-1320 13 c10 -6 3 -7 -20 -2 -19 3 -39 10 -45 16
-12 11 42 0 65 -14z m1146 -8 c8 0 14 -4 14 -10 0 -16 -23 -11 -50 10 -15 12
-18 18 -7 14 10 -4 17 -1 18 7 1 8 3 6 6 -3 2 -10 11 -18 19 -18z m344 20 c0
-5 -7 -10 -15 -10 -8 0 -15 5 -15 10 0 6 7 10 15 10 8 0 15 -4 15 -10z m-90
-4 c0 -3 -4 -8 -10 -11 -5 -3 -10 -1 -10 4 0 6 5 11 10 11 6 0 10 -2 10 -4z
m-169 -26 c-11 -6 -8 -14 13 -34 29 -30 33 -41 12 -33 -12 5 -14 -6 -7 -30 3
-8 0 -13 -5 -12 -4 0 -10 -5 -15 -12 -14 -23 -20 -3 -8 25 9 20 9 32 1 52 -7
14 -16 23 -21 19 -6 -3 -9 3 -8 14 0 10 6 17 13 14 7 -2 15 1 19 7 4 6 10 9
13 5 4 -3 0 -10 -7 -15z m-1561 -10 c0 -5 -7 -10 -15 -10 -8 0 -15 5 -15 10 0
6 7 10 15 10 8 0 15 -4 15 -10z m445 0 c-3 -5 -14 -10 -23 -10 -15 0 -15 2 -2
10 20 13 33 13 25 0z m865 -4 c-14 -7 -29 -10 -34 -8 -11 6 20 20 44 21 8 0 4
-5 -10 -13z m380 4 c0 -5 -2 -10 -4 -10 -3 0 -8 5 -11 10 -3 6 -1 10 4 10 6 0
11 -4 11 -10z m-1190 -16 c0 -2 -9 -4 -20 -4 -11 0 -20 4 -20 9 0 5 9 7 20 4
11 -3 20 -7 20 -9z m63 -10 c-4 -12 -43 -21 -43 -10 0 19 14 33 30 29 11 -3
16 -11 13 -19z m1160 1 c-7 -21 -13 -19 -13 6 0 11 4 18 10 14 5 -3 7 -12 3
-20z m-1593 -23 c0 -11 -3 -12 -13 -3 -20 16 -88 25 -85 10 4 -18 -19 -22 -25
-4 -4 9 -1 15 8 15 8 0 15 4 15 8 0 5 23 4 50 -2 32 -6 50 -15 50 -24z m475
28 c3 -5 -1 -10 -9 -10 -9 0 -16 5 -16 10 0 6 4 10 9 10 6 0 13 -4 16 -10z
m585 -10 c-13 -8 -12 -10 3 -10 9 0 17 7 17 15 0 8 5 15 10 15 6 0 3 -14 -6
-32 -12 -23 -14 -36 -6 -49 8 -13 6 -19 -14 -29 -31 -17 -31 -30 1 -30 14 0
28 -7 32 -16 5 -14 9 -13 24 7 10 13 19 30 19 38 0 11 4 11 18 -2 23 -21 33
-22 26 -2 -4 9 -1 15 7 15 8 0 25 3 38 7 20 5 23 3 18 -10 -3 -9 -2 -19 3 -22
6 -4 10 1 10 9 0 9 7 16 15 16 8 0 15 3 15 8 0 12 -35 39 -47 35 -6 -2 -13 5
-16 16 -3 14 -1 18 9 14 9 -3 14 2 15 13 0 11 3 14 6 7 2 -7 11 -13 18 -13 8
0 22 -10 32 -23 11 -13 26 -21 38 -19 16 2 17 1 5 -7 -13 -9 -12 -11 5 -11 11
0 26 -9 33 -20 10 -16 10 -20 -2 -20 -8 0 -17 6 -19 13 -3 6 -6 2 -6 -10 -1
-14 -7 -23 -17 -23 -11 0 -15 6 -11 20 3 10 -1 25 -9 31 -19 15 -30 4 -15 -15
8 -10 9 -16 1 -21 -6 -3 -8 -11 -5 -16 4 -5 1 -9 -5 -9 -7 0 -9 9 -5 23 5 19
4 18 -9 -4 -9 -16 -27 -29 -43 -31 -15 -3 -36 -9 -47 -13 -16 -7 -17 -5 -11
15 5 15 4 20 -4 16 -6 -4 -11 -14 -11 -22 0 -11 -6 -13 -21 -9 -14 5 -19 3
-15 -3 4 -7 -11 -12 -41 -14 -45 -3 -49 -1 -59 27 -8 24 -17 31 -44 33 -29 3
-32 1 -22 -11 7 -8 10 -22 6 -31 -4 -11 -1 -16 10 -16 9 0 16 7 16 15 0 9 6
12 15 9 10 -4 12 -11 5 -23 -6 -13 -18 -16 -45 -13 -31 4 -34 6 -23 20 11 13
10 15 -7 10 -27 -7 -46 13 -33 36 5 9 14 14 20 10 6 -4 8 1 6 11 -1 10 -9 20
-17 23 -9 3 -11 0 -6 -8 5 -8 1 -18 -10 -26 -18 -13 -18 -16 -2 -49 17 -36 7
-49 -13 -17 -9 15 -10 14 -5 -5 5 -16 2 -23 -8 -23 -11 0 -14 9 -13 33 4 47
-2 58 -31 51 -23 -6 -24 -5 -15 13 8 15 19 19 44 16 l33 -4 -42 28 c-24 15
-43 34 -43 41 0 6 -9 12 -21 12 -15 0 -19 -5 -15 -15 3 -9 0 -15 -8 -15 -8 0
-16 6 -19 13 -3 9 -9 9 -24 1 -16 -10 -19 -8 -19 7 0 17 9 19 73 19 56 0 73
-3 73 -14 0 -21 40 -64 46 -48 8 17 44 15 44 -3 0 -8 4 -15 9 -15 5 0 16 -3
24 -6 12 -4 14 0 10 15 -3 12 -1 21 6 21 5 0 8 8 5 18 -5 16 -5 16 9 0 8 -10
25 -18 38 -18 22 1 23 2 7 14 -10 7 -18 18 -18 25 0 6 -6 12 -12 12 -7 1 1 4
17 8 35 8 46 4 25 -9z m275 10 c-3 -5 -10 -10 -16 -10 -5 0 -9 5 -9 10 0 6 7
10 16 10 8 0 12 -4 9 -10z m45 6 c0 -3 -4 -8 -10 -11 -5 -3 -10 -1 -10 4 0 6
5 11 10 11 6 0 10 -2 10 -4z m-805 -17 c-17 -5 -42 -5 -60 0 -25 8 -21 9 30 9
50 0 55 -1 30 -9z m95 -4 c0 -1 -11 -5 -25 -7 -16 -3 -25 -1 -25 7 0 8 9 10
25 7 14 -2 25 -6 25 -7z m304 -10 c-9 -14 -24 -25 -33 -25 -15 1 -15 2 0 13 9
7 14 18 12 25 -3 7 4 12 16 12 21 0 21 -1 5 -25z m570 1 c-6 -16 -24 -23 -24
-8 0 10 22 33 27 28 2 -2 1 -11 -3 -20z m-624 4 c0 -5 -4 -10 -9 -10 -6 0 -13
5 -16 10 -3 6 1 10 9 10 9 0 16 -4 16 -10z m-416 -9 c3 -4 -6 -6 -19 -3 -14 2
-25 6 -25 8 0 8 39 4 44 -5z m906 -17 c0 -8 -4 -14 -9 -14 -12 0 -32 26 -25
33 10 9 34 -4 34 -19z m-1325 7 l30 -7 -27 -7 c-25 -6 -78 6 -78 18 0 6 36 5
75 -4z m575 -12 c0 -3 26 -7 57 -8 68 -2 85 -11 21 -11 -64 0 -168 12 -168 19
0 3 20 6 45 6 25 0 45 -3 45 -6z m543 1 c7 0 8 -3 1 -10 -12 -12 -56 -1 -48
12 3 5 13 7 21 4 8 -3 20 -6 26 -6z m-1510 -16 c17 -9 91 -41 165 -70 266
-107 482 -143 858 -144 195 0 328 13 489 47 196 41 189 41 207 -4 20 -48 68
-247 68 -279 0 -15 6 -24 15 -24 37 0 10 -112 -46 -190 -10 -14 -30 -67 -44
-119 -29 -105 -44 -139 -86 -192 -16 -20 -40 -61 -55 -90 l-26 -54 6 89 c5 79
4 87 -9 69 -23 -33 -38 -111 -32 -166 6 -63 65 -241 117 -357 80 -178 107
-245 103 -255 -2 -6 -28 -25 -57 -43 -30 -17 -67 -46 -82 -64 l-29 -33 0 120
c-1 122 -12 184 -66 351 -22 68 -48 112 -49 82 0 -9 9 -54 20 -100 22 -89 39
-308 24 -308 -5 0 -17 28 -27 63 -10 34 -25 71 -34 82 -15 19 -15 19 -9 -10
17 -84 18 -236 2 -365 -9 -74 -21 -151 -26 -170 -83 -328 -92 -384 -92 -550 0
-122 4 -175 21 -250 41 -179 122 -306 213 -331 53 -14 128 -6 168 18 35 20 96
105 130 178 113 248 129 274 238 386 134 140 198 175 297 166 35 -3 78 -13 95
-22 42 -22 150 -170 150 -206 0 -32 -15 -46 -27 -25 -15 25 -117 106 -134 106
-10 0 -20 6 -22 13 -4 9 -8 9 -15 -2 -8 -12 -13 -12 -25 -2 -11 8 -17 9 -22 1
-5 -8 -11 -7 -21 1 -12 10 -16 8 -21 -9 -4 -18 -8 -20 -26 -10 -16 8 -22 8
-25 -1 -2 -6 -10 -11 -18 -11 -8 0 -14 -5 -14 -11 0 -5 -8 -9 -19 -7 -18 3
-71 -49 -71 -71 0 -15 -13 -14 -28 1 -10 10 -18 6 -37 -16 -14 -16 -25 -39
-25 -52 0 -13 -4 -26 -10 -29 -26 -16 -2 -134 37 -177 15 -17 14 -18 -9 -18
-17 0 -38 13 -63 41 -20 22 -39 38 -43 35 -9 -10 27 -116 60 -175 l30 -54 -29
7 c-15 4 -40 16 -55 27 l-28 20 0 -24 c0 -22 22 -114 35 -149 10 -25 -20 -23
-58 4 l-30 22 6 -57 c7 -73 -8 -75 -58 -6 -20 28 -38 49 -41 46 -6 -5 12 -166
21 -189 15 -37 -17 -16 -62 42 -26 33 -51 59 -57 57 -6 -2 -13 -39 -16 -83
l-5 -79 -26 50 c-14 28 -29 63 -33 78 -4 17 -11 25 -18 21 -7 -4 -9 -29 -5
-72 6 -62 6 -64 -12 -48 -31 28 -41 20 -41 -39 0 -42 -3 -53 -14 -49 -13 5
-28 66 -42 173 l-6 54 -29 -67 c-16 -36 -34 -85 -40 -109 l-12 -42 -8 30 c-3
17 -7 65 -8 108 0 43 -5 77 -11 77 -5 0 -31 -45 -57 -100 -27 -54 -51 -99 -55
-100 -12 0 -9 120 3 163 14 51 4 59 -30 22 -16 -17 -45 -46 -65 -65 l-38 -35
8 40 c4 22 20 66 35 97 16 32 29 60 29 63 0 12 -66 -41 -117 -93 -43 -44 -54
-51 -59 -38 -13 33 4 105 35 156 18 29 30 54 27 57 -7 8 -42 -14 -106 -68 -66
-55 -72 -50 -39 33 27 70 65 107 155 153 41 21 74 40 74 43 0 2 -21 2 -46 -2
-62 -8 -146 -54 -223 -124 -36 -31 -62 -49 -58 -39 22 59 48 159 42 165 -7 8
-61 -54 -70 -80 -9 -25 -24 -22 -31 6 -8 31 17 77 61 113 54 45 180 103 247
115 87 15 59 31 -49 26 -80 -3 -95 -7 -173 -47 -113 -57 -132 -75 -125 -120
l4 -36 -13 40 c-25 70 -21 90 27 128 54 45 140 83 241 109 119 30 114 28 95
38 -20 12 -159 -4 -214 -23 -57 -20 -182 -84 -190 -97 -3 -6 -10 -8 -15 -5
-14 8 22 85 49 106 14 11 48 36 75 56 28 20 44 39 38 41 -6 2 -52 -14 -102
-36 -49 -22 -90 -39 -90 -38 0 2 5 17 11 35 9 25 25 38 84 67 112 53 253 86
348 81 76 -4 77 -3 45 11 -51 23 -192 27 -268 8 -76 -19 -213 -85 -253 -122
l-27 -25 0 48 c0 26 9 77 20 113 11 36 20 69 20 73 0 12 -35 -10 -68 -43 -17
-16 -33 -30 -35 -30 -10 0 24 126 49 179 13 30 22 56 20 58 -2 3 -29 -21 -60
-53 -56 -58 -56 -58 -56 -29 0 43 26 195 39 228 6 16 11 35 11 44 0 24 -27 -2
-51 -50 -11 -21 -23 -36 -26 -33 -11 11 -2 138 13 184 9 26 32 73 51 105 19
32 32 61 29 64 -9 9 -100 -81 -139 -137 l-32 -45 -3 28 c-5 39 30 147 77 240
21 42 34 77 29 77 -6 0 -39 -30 -74 -67 -60 -64 -64 -66 -64 -40 0 44 30 167
55 222 12 28 38 71 58 98 20 26 32 47 26 47 -20 0 -107 -101 -141 -164 l-33
-61 -3 43 c-3 38 42 375 54 407 3 7 1 16 -4 19 -17 10 -78 -200 -108 -368 -12
-69 -15 -125 -11 -187 3 -49 4 -89 1 -89 -2 0 -28 19 -57 43 -29 23 -80 55
-115 71 -43 21 -62 35 -62 48 0 11 18 60 39 111 83 196 111 291 113 390 2 134
-37 251 -110 330 -31 33 -50 36 -29 4 16 -25 48 -137 38 -137 -3 0 -32 16 -63
35 -32 19 -58 31 -58 27 0 -11 29 -50 93 -129 31 -38 57 -74 57 -78 0 -4 -20
11 -44 33 -69 63 -139 94 -116 51 15 -26 7 -34 -18 -20 -32 17 -34 13 -11 -19
30 -39 20 -46 -29 -21 -78 40 -136 134 -173 279 -25 98 -29 106 -82 162 -59
63 -121 164 -132 217 -10 50 13 153 46 203 36 55 87 115 93 109 2 -2 0 -46 -5
-98 -13 -129 -7 -131 35 -10 9 25 23 54 31 65 13 17 14 8 8 -76 -7 -112 3
-110 37 5 13 44 35 103 49 130 l26 50 5 -77 c6 -87 15 -106 24 -51 8 42 104
223 118 223 5 0 23 -7 41 -16z m336 -10 c-9 -11 -15 -11 -25 -3 -19 15 -9 28
16 22 16 -4 18 -8 9 -19z m801 12 c0 -11 -19 -15 -25 -6 -3 5 1 10 9 10 9 0
16 -2 16 -4z m300 -16 c-6 -11 -15 -18 -20 -15 -13 8 0 35 16 35 12 0 12 -4 4
-20z m-668 -22 c-16 -16 -15 -28 3 -28 17 0 20 -16 5 -25 -8 -5 -7 -11 1 -21
13 -15 4 -17 -61 -14 -61 2 -72 9 -66 38 5 20 4 23 -4 12 -5 -8 -10 -10 -10
-4 0 23 27 36 50 24 11 -6 18 -15 15 -20 -7 -12 5 -40 18 -40 6 0 7 3 4 6 -3
4 -2 15 4 25 7 15 6 19 -6 19 -8 0 -15 9 -15 20 0 16 7 20 37 20 29 0 34 -3
25 -12z m53 3 c17 -7 17 -8 -8 -13 -19 -4 -27 -1 -27 8 0 15 6 16 35 5z m277
-13 c-7 -7 -12 -8 -12 -2 0 14 12 26 19 19 2 -3 -1 -11 -7 -17z m-22 -2 c0 -2
3 -12 6 -20 5 -12 2 -15 -10 -10 -9 3 -13 10 -10 15 3 5 -1 9 -9 9 -11 0 -15
-11 -14 -35 1 -21 4 -30 9 -22 7 11 12 3 9 -15 0 -5 5 -8 12 -8 7 0 18 14 24
31 10 27 14 29 32 17 13 -8 17 -16 11 -23 -6 -7 -5 -16 2 -23 9 -9 8 -12 -5
-12 -9 0 -17 7 -17 16 0 8 -5 12 -10 9 -6 -4 -8 -11 -5 -16 8 -12 -236 -12
-270 1 -14 5 -23 15 -20 20 4 6 10 8 14 6 4 -3 13 -1 20 3 9 6 5 10 -13 15
-14 3 -26 11 -26 16 0 12 0 12 39 -1 24 -8 35 -8 47 1 12 11 19 9 41 -11 18
-16 27 -20 30 -11 3 6 11 12 19 12 8 0 14 6 14 14 0 9 -18 14 -62 15 -104 3
-78 11 35 11 59 0 107 -2 107 -4z m-1950 -326 c0 -5 -4 -10 -10 -10 -5 0 -10
5 -10 10 0 6 5 10 10 10 6 0 10 -4 10 -10z m130 -200 c0 -5 -7 -10 -16 -10
-14 0 -15 -2 -3 -17 12 -15 12 -16 -3 -10 -10 3 -20 2 -23 -3 -11 -18 -26 -10
-23 12 2 16 12 25 33 29 17 4 31 7 33 8 1 0 2 -3 2 -9z m70 -42 c0 -10 -31
-10 -48 0 -8 6 -2 9 18 9 16 0 30 -4 30 -9z m-43 -34 c-3 -3 -12 -4 -19 -1 -8
3 -5 6 6 6 11 1 17 -2 13 -5z m-10 -40 c-3 -3 -12 -4 -19 -1 -8 3 -5 6 6 6 11
1 17 -2 13 -5z m2900 -40 c-3 -3 -12 -4 -19 -1 -8 3 -5 6 6 6 11 1 17 -2 13
-5z m46 -1 c-7 -2 -19 -2 -25 0 -7 3 -2 5 12 5 14 0 19 -2 13 -5z m1200 -134
c70 -90 168 -236 174 -258 2 -11 -22 -35 -74 -73 -43 -32 -94 -72 -113 -89
-38 -34 -40 -34 -143 5 -37 14 -79 26 -92 26 -31 0 -31 12 0 70 89 165 104
207 102 275 -2 64 -1 68 31 96 19 17 39 28 45 26 7 -2 38 -37 70 -78z m-1333
22 c0 -5 -7 -11 -14 -14 -10 -4 -13 -1 -9 9 6 15 23 19 23 5z m17 -37 c-3 -3
-12 -4 -19 -1 -8 3 -5 6 6 6 11 1 17 -2 13 -5z m-56 -47 c-6 -8 -8 -17 -4 -20
3 -4 1 -7 -5 -7 -15 0 -15 13 0 28 16 16 23 15 9 -1z m-21 -47 c0 -5 -4 -10
-10 -10 -5 0 -10 5 -10 10 0 6 5 10 10 10 6 0 10 -4 10 -10z m-4280 -36 c18
-32 52 -50 130 -68 69 -16 85 -27 107 -69 15 -30 15 -42 -3 -167 -5 -40 -2
-50 25 -87 39 -53 105 -87 195 -101 49 -8 82 -20 110 -40 23 -16 56 -37 73
-46 21 -11 41 -33 55 -64 24 -50 75 -93 251 -213 48 -33 87 -61 87 -64 0 -2
-6 -24 -14 -47 -57 -172 -105 -428 -126 -673 -12 -146 -12 -495 0 -550 40
-184 143 -420 262 -606 31 -47 65 -104 77 -127 43 -85 121 -453 121 -575 0
-59 -10 -88 -59 -161 l-26 -39 -6 37 c-3 20 -4 59 -1 86 4 41 8 50 23 50 11 0
19 5 19 10 0 6 -9 10 -20 10 -19 0 -20 7 -20 125 l0 125 -102 0 c-114 0 -306
9 -325 15 -9 3 -13 25 -13 63 l0 58 43 22 c23 12 31 19 17 15 -61 -16 -65 -13
-68 55 -2 46 -7 62 -17 62 -12 0 -15 -15 -15 -69 l0 -68 -42 -16 c-91 -34 -83
-62 -83 283 l0 305 48 7 c66 9 68 15 10 23 -26 4 -54 8 -60 10 -10 3 -13 36
-13 120 l0 115 -45 0 -45 0 0 55 c0 62 10 68 64 40 45 -24 41 -12 -13 33 -35
30 -50 51 -55 76 l-7 35 -62 3 -62 3 0 90 c0 86 -1 90 -23 93 -21 3 -22 1 -22
-92 l0 -96 -40 0 c-37 0 -43 -5 -89 -62 l-49 -63 34 -3 c34 -3 34 -4 34 -52 0
-27 -5 -52 -11 -55 -5 -4 -37 19 -70 50 l-61 58 -77 -6 c-43 -3 -100 -14 -127
-24 -48 -18 -49 -19 -52 -66 -2 -34 -7 -47 -18 -47 -9 0 -14 -8 -13 -17 1 -10
1 -37 0 -60 l-1 -43 -225 0 c-173 0 -225 3 -225 13 0 6 -7 71 -15 142 -8 72
-15 172 -15 224 l0 94 228 -7 c125 -4 286 -11 357 -16 168 -12 361 -12 321 0
-16 5 -88 16 -160 25 -72 9 -212 29 -311 45 -99 15 -234 36 -300 45 -66 9
-124 19 -129 22 -19 12 30 523 53 546 8 8 255 -50 646 -152 219 -57 546 -133
551 -128 8 7 -64 33 -486 177 -206 71 -444 152 -528 182 l-153 53 5 37 c4 21
12 57 20 80 7 24 24 77 36 118 26 86 109 301 121 314 4 5 117 -45 261 -117
139 -69 296 -145 348 -170 52 -24 151 -72 220 -105 344 -166 423 -202 427
-198 5 5 -2 9 -132 88 -49 30 -132 81 -183 114 -51 32 -114 72 -140 89 -56 35
-513 335 -629 413 -46 30 -83 61 -83 68 0 26 131 242 255 420 14 20 20 18 35
-12z m4256 -31 c-10 -10 -19 5 -10 18 6 11 8 11 12 0 2 -7 1 -15 -2 -18z m-28
-14 c-2 -6 -7 -10 -11 -10 -4 1 -15 1 -24 2 -15 0 -15 2 2 9 28 12 37 12 33
-1z m1660 -136 c32 -47 107 -192 162 -313 l52 -114 -28 -23 c-49 -39 -116 -75
-123 -67 -4 5 -18 34 -31 64 -43 105 -161 244 -243 286 -15 8 -27 19 -25 24 4
10 200 170 210 170 3 0 15 -12 26 -27z m-392 -144 c106 -33 158 -63 240 -141
119 -113 183 -265 183 -433 0 -161 -53 -289 -169 -405 -125 -125 -257 -180
-431 -180 -340 0 -570 234 -572 580 -2 330 262 598 589 600 66 0 111 -6 160
-21z m644 -380 c12 -29 24 -66 27 -83 5 -32 4 -32 -83 -71 -48 -22 -91 -41
-94 -43 -4 -1 -10 26 -14 60 -4 35 -10 73 -12 85 -5 18 5 27 68 62 40 22 76
41 79 41 4 0 16 -23 29 -51z m-3708 -208 c37 -38 68 -74 68 -80 0 -6 -17 -55
-39 -108 -37 -94 -53 -151 -69 -258 l-8 -50 -18 70 c-33 131 -36 136 -32 55 4
-89 45 -204 102 -287 20 -30 35 -56 32 -58 -3 -3 -26 13 -52 36 -82 73 -165
276 -166 407 0 97 73 342 103 342 6 0 42 -31 79 -69z m3787 -13 c41 -138 92
-361 89 -392 -3 -30 -4 -31 -123 -63 -176 -47 -269 -75 -280 -86 -13 -12 95
10 338 69 41 10 72 13 77 8 15 -15 30 -174 37 -375 l6 -185 -169 -23 c-93 -12
-270 -35 -394 -52 -124 -17 -290 -39 -370 -49 -80 -10 -162 -22 -183 -27 -21
-4 221 -6 538 -5 l576 4 -6 -49 c-3 -26 -9 -90 -15 -142 -5 -52 -13 -98 -18
-103 -5 -5 -91 -4 -198 2 -104 5 -207 10 -228 10 -34 0 -45 6 -85 52 -25 28
-62 69 -81 90 l-35 39 -25 -23 c-40 -38 -191 -153 -239 -182 -37 -24 -50 -27
-91 -21 -62 9 -70 -6 -20 -39 l40 -26 0 -475 0 -475 -61 0 -61 0 8 468 c13
675 14 626 -16 631 -14 1 -28 8 -33 15 -4 6 -6 72 -5 147 1 139 -2 159 -27
159 -12 0 -15 -30 -17 -157 l-3 -158 -215 0 c-118 0 -218 -4 -221 -9 -4 -4 -7
-51 -8 -104 -1 -53 -4 -98 -6 -100 -2 -2 -24 1 -50 6 -53 11 -51 6 8 -23 l42
-22 3 -216 2 -216 -125 -3 -126 -3 -4 -190 c-2 -104 -4 -203 -5 -218 l0 -28
-102 3 c-85 2 -103 6 -101 18 0 8 13 71 28 140 17 79 29 178 34 270 7 127 11
151 33 195 37 72 65 169 73 255 5 51 14 86 29 110 57 89 130 276 154 395 7 35
12 40 45 47 21 4 52 15 70 24 40 21 195 178 208 211 19 49 11 107 -22 156 -28
43 -29 48 -16 74 8 15 29 45 45 66 17 21 32 42 34 48 2 5 35 -6 75 -26 96 -47
185 -66 307 -66 191 1 338 64 474 202 72 74 149 229 164 330 6 41 14 78 19 83
11 12 169 75 190 76 11 0 22 -21 38 -72z m-2251 25 c62 -169 74 -225 73 -350
-1 -149 -27 -228 -112 -340 -62 -83 -73 -66 -23 35 47 92 78 213 72 279 -4 45
-10 34 -34 -72 -14 -58 -20 -72 -22 -50 -7 74 -26 137 -72 237 -28 59 -50 118
-50 131 0 26 22 59 79 120 43 45 74 48 89 10z m726 -103 c16 -118 79 -257 154
-342 25 -27 41 -52 37 -56 -4 -4 -22 10 -40 31 -37 42 -65 49 -65 15 0 -58
-60 -109 -109 -93 -18 5 -21 14 -21 61 0 30 -6 98 -14 152 -13 86 -29 221 -31
246 0 8 54 32 76 35 4 1 9 -21 13 -49z m-3504 -516 c48 -66 130 -154 143 -154
5 0 5 44 2 99 -4 54 -4 104 0 111 5 8 46 -28 119 -104 118 -123 148 -143 120
-78 -38 84 -74 194 -80 244 l-7 53 124 -121 c130 -128 198 -177 367 -264 56
-29 102 -57 102 -62 0 -4 -1 -8 -3 -8 -8 0 -193 41 -223 49 -24 7 -31 6 -28
-2 7 -17 184 -129 367 -233 91 -51 184 -112 218 -143 33 -29 62 -51 65 -48 6
5 -28 113 -46 147 -15 27 -6 37 16 19 26 -21 112 -208 120 -259 l7 -45 -74 71
c-109 104 -197 160 -327 206 -131 46 -160 41 -64 -12 79 -45 220 -142 268
-185 l39 -36 -63 31 c-72 35 -260 100 -288 100 -11 0 14 -18 55 -41 99 -53
240 -161 323 -245 37 -37 66 -70 64 -71 -2 -2 -46 25 -99 60 -53 36 -135 81
-183 101 -165 69 -247 76 -118 10 145 -74 283 -173 390 -280 85 -85 109 -115
143 -186 23 -46 41 -88 41 -92 0 -5 -54 44 -120 109 -126 123 -168 147 -82 48
92 -107 132 -184 167 -323 17 -65 47 -271 41 -277 -1 -2 -23 22 -47 54 -24 31
-59 72 -77 92 l-33 36 29 -60 c16 -33 60 -130 97 -215 37 -85 105 -231 152
-324 121 -242 149 -336 159 -538 2 -57 8 -143 13 -193 14 -145 10 -177 -34
-240 -22 -32 -57 -67 -86 -85 -47 -29 -62 -44 -36 -35 6 2 53 6 104 10 l92 6
22 -43 c12 -24 34 -61 49 -83 14 -22 37 -65 49 -94 l23 -55 -22 -18 c-32 -26
-44 -23 -74 20 -35 50 -92 82 -148 82 -54 0 -129 -44 -153 -90 l-16 -31 -35
30 c-45 40 -96 61 -149 61 -44 0 -77 -19 -122 -70 -12 -14 -23 -20 -23 -13 0
19 -59 82 -93 99 -35 19 -72 12 -106 -19 l-24 -22 6 25 c42 189 49 235 49 320
0 138 -28 324 -58 384 -21 42 -27 73 -35 190 -12 189 -37 314 -100 511 -20 60
-39 99 -39 79 0 -6 9 -53 20 -105 11 -52 20 -98 20 -104 0 -19 -29 32 -135
239 l-107 210 7 310 c4 211 3 306 -4 295 -12 -19 -61 -221 -61 -252 0 -49 -20
6 -49 138 -38 168 -49 202 -111 325 -101 201 -182 460 -205 654 -8 69 -20 60
-30 -24 -5 -40 1 -98 19 -201 14 -80 28 -154 32 -164 17 -44 -14 -1 -41 57
-17 35 -33 65 -37 66 -5 2 -8 11 -8 19 0 9 -3 14 -6 11 -14 -14 87 -333 151
-474 24 -54 42 -100 40 -102 -3 -4 -115 111 -154 158 -11 14 -20 20 -21 13 0
-18 59 -142 97 -202 19 -29 32 -55 30 -58 -9 -8 -102 99 -164 190 -35 50 -63
88 -63 84 0 -17 123 -305 171 -401 17 -32 28 -60 26 -63 -6 -5 -91 103 -145
184 -162 240 -250 564 -251 918 -1 128 21 363 40 438 l11 45 28 -53 c15 -29
47 -79 70 -111z m3279 80 c1 -26 -14 -45 -98 -127 -54 -53 -103 -97 -108 -97
-21 0 -73 22 -73 31 0 5 4 9 9 9 7 0 53 46 202 202 50 52 54 55 61 35 3 -12 6
-36 7 -53z m377 22 c10 -8 16 -17 12 -21 -7 -7 -48 16 -48 27 0 12 14 9 36 -6z
m-41 -56 c23 -25 13 -37 -20 -22 -16 7 -23 17 -19 27 8 20 17 19 39 -5z
m-2797 -166 c48 -25 76 -43 62 -39 -43 12 -179 85 -157 85 4 0 47 -21 95 -46z
m2705 -226 c55 -28 -26 -99 -115 -102 l-53 -1 -3 35 c-2 19 3 43 11 53 23 33
110 41 160 15z m-4323 -532 c0 -36 -3 -67 -7 -69 -5 -3 -23 -2 -40 0 l-33 5 0
64 0 64 40 0 40 0 0 -64z m170 -6 l0 -70 -40 0 -40 0 0 70 0 70 40 0 40 0 0
-70z m4295 -92 l1 -58 -37 0 c-37 0 -37 0 -44 50 -8 62 -2 72 43 68 l37 -3 0
-57z m136 52 c16 0 19 -7 19 -54 l0 -54 -35 -4 c-20 -2 -38 -2 -40 1 -8 7 -6
107 2 115 4 3 13 4 21 1 7 -3 22 -5 33 -5z m179 -57 l0 -54 -42 3 c-43 3 -43
3 -46 47 -5 62 0 67 47 63 l41 -4 0 -55z m1125 -3 c13 -11 -16 -167 -57 -305
-11 -38 -20 -71 -20 -72 2 -6 -91 -271 -110 -315 -20 -47 -21 -48 -65 -48
l-45 0 4 368 c2 202 7 373 12 381 7 11 33 13 139 7 72 -3 136 -11 142 -16z
m-6175 -90 c0 -33 -4 -60 -10 -60 -11 0 -14 103 -3 113 12 12 13 8 13 -53z
m-60 -25 c0 -30 -4 -55 -10 -55 -5 0 -10 25 -10 55 0 30 5 55 10 55 6 0 10
-25 10 -55z m325 -25 l0 -65 -35 0 -35 0 -3 68 -3 68 38 -3 38 -3 0 -65z m175
2 l0 -69 -37 2 -38 3 -3 66 -3 66 41 0 40 0 0 -68z m-550 -2 c0 -33 -4 -60
-10 -60 -6 0 -10 27 -10 60 0 33 4 60 10 60 6 0 10 -27 10 -60z m-79 -93 c-8
-8 -11 7 -11 49 0 79 14 93 18 18 2 -31 -2 -62 -7 -67z m-101 -197 l0 -299
-42 -11 c-24 -6 -55 -16 -69 -21 -57 -22 -78 -10 -111 66 -66 154 -170 477
-157 489 3 3 321 67 372 75 4 0 7 -134 7 -299z m5724 213 l6 -63 -45 0 -45 0
0 64 0 65 33 3 c17 2 35 1 38 -2 4 -3 9 -33 13 -67z m-1304 -5 c-5 -29 -19
-102 -30 -161 -47 -250 -62 -292 -150 -424 -32 -47 -41 -73 -46 -123 -10 -125
-26 -266 -34 -311 -6 -28 -10 -122 -11 -208 0 -90 -6 -171 -12 -192 -24 -72
-123 -233 -182 -295 -72 -75 -111 -89 -225 -81 -82 6 -151 29 -243 83 -33 19
-62 33 -65 30 -5 -6 40 -71 72 -101 39 -38 81 -63 131 -78 48 -15 49 -16 15
-16 -53 0 -150 23 -198 48 -97 50 -156 225 -102 301 26 37 48 133 56 254 l7
98 65 87 c79 106 98 143 107 206 l7 50 -32 -43 c-17 -24 -33 -42 -35 -40 -7 7
33 124 59 176 33 65 67 104 110 127 20 11 36 25 36 32 0 18 -43 27 -88 18
l-37 -7 34 36 c37 38 122 76 172 76 37 0 97 -25 126 -52 31 -29 31 -3 0 43
-47 71 -142 88 -242 45 -30 -14 -55 -21 -55 -16 0 14 55 56 107 81 67 33 179
34 241 1 53 -28 55 -12 5 36 -43 40 -89 62 -133 62 -41 0 -38 18 5 26 82 15
166 -18 207 -81 29 -43 42 -45 34 -3 -9 48 -47 117 -78 143 -16 13 -28 27 -28
32 0 4 42 21 93 36 105 33 231 92 297 141 25 18 46 30 48 25 2 -4 -2 -31 -8
-61z m1470 7 l0 -65 -40 0 -40 0 0 65 0 65 40 0 40 0 0 -65z m160 0 l0 -65
-40 0 -40 0 0 65 0 65 40 0 40 0 0 -65z m-1016 -55 l-1 -55 -39 0 c-39 0 -39
0 -42 44 -5 63 2 73 45 69 l38 -3 -1 -55z m206 -5 l0 -55 -45 0 -45 0 0 48 c0
27 3 52 7 55 3 4 24 7 45 7 l38 0 0 -55z m-4944 -72 c-3 -7 -10 -13 -16 -13
-11 0 -14 103 -2 114 9 9 25 -82 18 -101z m-66 23 c0 -30 -4 -58 -10 -61 -6
-4 -10 17 -10 54 0 34 4 61 10 61 6 0 10 -24 10 -54z m-54 -72 c-3 -8 -10 -14
-16 -14 -14 0 -13 103 3 119 10 10 13 2 15 -40 2 -28 1 -58 -2 -65z m382 23
l3 -68 -38 3 -38 3 -3 68 -3 68 38 -3 38 -3 3 -68z m172 3 l0 -70 -40 0 -40 0
0 70 0 70 40 0 40 0 0 -70z m-620 -5 c0 -37 -4 -65 -10 -65 -11 0 -14 113 -3
123 12 13 13 7 13 -58z m5614 -24 c3 -5 3 -37 -1 -70 l-6 -62 -36 3 -36 3 -3
54 c-2 29 -1 60 2 67 6 16 71 19 80 5z m166 -61 l0 -70 -40 0 -40 0 0 70 0 70
40 0 40 0 0 -70z m160 0 l0 -70 -40 0 -40 0 0 70 0 70 40 0 40 0 0 -70z
m-5750 -39 c0 -31 -5 -53 -15 -61 -13 -11 -15 -5 -15 42 0 30 3 58 7 61 16 17
23 4 23 -42z m4860 -26 l0 -55 -40 0 -40 0 0 55 0 55 40 0 40 0 0 -55z m165
44 c4 -6 4 -31 0 -55 -6 -45 -7 -45 -43 -42 -35 3 -37 5 -40 42 -2 21 -1 44 2
52 6 17 72 19 81 3z m-5095 -44 c0 -25 0 -48 1 -52 0 -4 -4 -9 -10 -11 -7 -2
-11 17 -11 52 0 31 5 56 10 56 6 0 10 -20 10 -45z m-52 -30 c-4 -67 -22 -78
-25 -15 -3 51 2 70 17 70 7 0 10 -20 8 -55z m-68 -35 c0 -33 -4 -60 -10 -60
-6 0 -10 27 -10 60 0 33 4 60 10 60 6 0 10 -27 10 -60z m450 -21 l0 -69 -40 0
-40 0 0 68 c0 38 2 71 5 73 2 3 20 3 40 1 l35 -4 0 -69z m168 5 l-3 -67 -37
-4 -38 -4 0 71 0 70 40 0 41 0 -3 -66z m222 -84 l0 -60 -65 0 -65 0 0 40 0 39
63 20 c34 10 63 20 65 20 1 1 2 -26 2 -59z m-654 -76 c-3 -8 -10 -14 -16 -14
-12 0 -14 113 -2 124 9 10 26 -90 18 -110z m-66 20 c0 -34 -4 -53 -10 -49 -5
3 -10 28 -10 56 0 27 5 49 10 49 6 0 10 -25 10 -56z m-50 -15 c0 -71 -20 -79
-26 -10 -4 37 7 71 22 71 2 0 4 -27 4 -61z m-65 -29 c0 -34 -5 -55 -12 -57
-10 -4 -13 12 -13 57 0 45 3 61 13 58 7 -3 12 -24 12 -58z m-115 -135 c0 -91
-3 -165 -8 -165 -16 0 -152 244 -152 273 0 12 107 53 148 56 9 1 12 -38 12
-164z m558 91 c4 -77 1 -83 -41 -78 l-35 4 -4 65 c-2 36 -1 67 2 69 2 3 20 4
40 2 l35 -3 3 -59z m170 -13 l-3 -68 -35 0 -35 0 -3 68 -3 67 41 0 41 0 -3
-67z m4992 -38 c0 -30 0 -58 0 -62 0 -5 -17 -8 -37 -8 l-38 0 -3 63 -3 62 41
0 40 0 0 -55z m170 -10 l0 -65 -40 0 -40 0 0 65 0 65 40 0 40 0 0 -65z m160 0
l0 -65 -40 0 -40 0 0 65 0 65 40 0 40 0 0 -65z m-5752 -40 c-4 -70 -28 -72
-28 -2 0 29 3 57 7 61 14 14 24 -13 21 -59z m-68 -20 c0 -30 -4 -55 -10 -55
-5 0 -10 25 -10 55 0 30 5 55 10 55 6 0 10 -25 10 -55z m-50 -21 c0 -30 -4
-54 -10 -54 -5 0 -10 8 -11 18 0 9 -3 30 -5 46 -6 35 2 60 16 51 5 -3 10 -31
10 -61z m-60 -24 c0 -33 -5 -50 -15 -54 -12 -4 -15 5 -15 48 0 29 3 56 6 59
15 14 24 -7 24 -53z m438 -89 l-3 -66 -35 0 -35 0 -3 59 c-4 78 -1 83 42 78
l37 -4 -3 -67z m172 -2 l0 -69 -40 0 -40 0 0 69 0 70 33 3 c17 2 35 2 40 0 4
-2 7 -34 7 -73z m421 52 c3 -1 5 -29 5 -63 l-1 -63 -40 0 -40 0 -3 54 c-4 73
1 82 40 77 18 -3 36 -5 39 -5z m177 -65 l3 -66 -46 0 -45 0 0 63 c0 35 2 66 4
68 2 2 22 4 43 3 l38 -1 3 -67z m3212 -1 l0 -65 -40 0 -40 0 0 59 c0 64 -3 61
68 70 8 1 12 -18 12 -64z m168 -1 l3 -62 -41 -4 c-23 -2 -43 -2 -46 1 -7 7 -5
117 3 125 4 4 23 6 43 4 l35 -3 3 -61z m164 26 c4 -98 7 -92 -39 -94 l-43 -2
0 68 0 68 40 0 c40 0 40 0 42 -40z m144 30 c23 0 24 -3 24 -60 l0 -60 -45 0
-45 0 0 58 c0 62 6 76 28 67 7 -3 25 -5 38 -5z m194 -55 l0 -65 -45 0 -45 0 0
58 c0 32 3 62 7 65 3 4 24 7 45 7 l38 0 0 -65z m170 -5 l0 -60 -45 0 -45 0 0
60 0 60 45 0 45 0 0 -60z m343 33 c4 -2 7 -31 7 -64 l0 -59 -45 0 -45 0 0 58
c0 32 5 63 12 70 10 10 48 8 71 -5z m167 -58 l0 -65 -40 0 -40 0 0 65 0 65 40
0 40 0 0 -65z m157 36 c-12 -60 -35 -101 -56 -101 -19 0 -21 6 -21 65 l0 65
41 0 c41 0 41 -1 36 -29z m-5751 -48 c0 -35 -6 -58 -13 -60 -10 -4 -13 12 -13
55 0 32 3 62 6 65 15 15 22 -6 20 -60z m-75 -66 c-8 -8 -11 5 -11 44 0 72 14
86 18 18 2 -28 -2 -57 -7 -62z m-41 33 c0 -33 -4 -60 -9 -60 -12 0 -25 84 -17
105 13 34 26 12 26 -45z m-70 -20 c0 -33 -4 -60 -10 -60 -11 0 -14 103 -3 113
12 12 13 8 13 -53z m450 -124 c0 -36 -5 -68 -10 -71 -6 -4 -24 -4 -40 0 -29 6
-30 8 -30 71 l0 64 40 0 40 0 0 -64z m170 -11 l0 -65 -40 0 -40 0 0 65 0 65
40 0 40 0 0 -65z m421 48 c8 -119 6 -126 -42 -121 l-34 3 -3 68 -3 67 41 0
c31 0 40 -4 41 -17z m174 -53 l0 -65 -42 -3 -43 -3 0 71 0 71 43 -3 42 -3 0
-65z m3191 60 c23 0 24 -3 24 -65 l0 -65 -40 0 -40 0 0 71 c0 61 2 70 16 65 9
-3 27 -6 40 -6z m-143 -12 c-2 -5 -3 -33 -3 -64 l0 -55 -37 3 -38 3 -3 63 -3
63 43 -3 c24 -2 42 -6 41 -10z m337 -53 l0 -65 -45 0 -45 0 0 65 0 65 45 0 45
0 0 -65z m160 0 l0 -65 -40 0 -40 0 0 65 0 65 40 0 40 0 0 -65z m170 -1 l0
-65 -42 3 -43 3 -3 49 c-4 68 1 76 48 76 l40 0 0 -66z m170 1 l0 -65 -45 0
-45 0 0 65 0 65 45 0 45 0 0 -65z m170 0 l0 -65 -45 0 -45 0 0 65 0 65 45 0
45 0 0 -65z m347 -29 l-4 -61 -39 0 -39 0 -3 54 c-4 73 -1 77 47 73 l42 -4 -4
-62z m173 45 c0 -20 -66 -111 -80 -111 -6 0 -10 29 -10 65 l0 65 45 0 c37 0
45 -3 45 -19z m-5342 -235 c2 -32 -1 -63 -6 -68 -6 -6 -24 -7 -41 -3 -30 6
-31 8 -31 64 0 32 3 61 7 65 4 4 21 6 38 4 29 -3 30 -4 33 -62z m167 -6 l0
-65 -34 -3 c-40 -4 -51 9 -51 58 0 68 9 81 49 78 l36 -3 0 -65z m603 -2 l-3
-63 -40 0 -40 0 -3 49 c-4 68 1 76 48 76 l41 0 -3 -62z m3045 53 c4 -1 7 -29
5 -63 l-3 -63 -42 -3 -43 -3 0 64 c0 35 2 66 5 69 3 3 20 4 38 2 18 -1 36 -3
40 -3z m497 -63 l0 -68 -40 0 -40 0 0 70 0 70 40 -3 40 -2 0 -67z m-330 -3 l0
-65 -40 0 -40 0 0 65 0 65 40 0 40 0 0 -65z m170 0 l0 -65 -45 0 -45 0 0 65 0
65 45 0 45 0 0 -65z m330 -1 l0 -65 -42 3 -43 3 -3 63 -3 62 46 0 45 0 0 -66z
m168 4 l-3 -63 -42 -3 -43 -3 0 65 0 66 45 0 46 0 -3 -62z m170 0 l-3 -63 -42
-3 -43 -3 0 65 0 66 45 0 46 0 -3 -62z m-1004 -243 l-1 -60 -39 0 -39 0 -3 54
c-4 74 -1 79 45 72 l38 -7 -1 -59z m164 3 l3 -68 -41 0 -40 0 0 71 0 70 38 -3
37 -3 3 -67z m161 58 c10 -7 11 -68 2 -124 -1 -2 -18 -2 -38 0 l-38 3 -3 54
c-2 29 -1 59 1 65 5 12 57 14 76 2z m171 -61 l0 -65 -40 2 -40 1 0 64 0 63 40
0 40 0 0 -65z m338 3 l-3 -63 -40 0 -40 0 -3 63 -3 62 46 0 46 0 -3 -62z
m-973 -432 c166 -5 193 -8 340 -44 88 -21 196 -47 240 -56 335 -72 534 -125
605 -161 47 -24 87 -61 77 -71 -8 -8 -181 -31 -289 -39 -129 -8 -179 -15 -174
-24 3 -4 24 -8 48 -9 130 -6 208 -22 208 -42 0 -6 -39 -29 -86 -52 l-86 -40
-62 20 c-33 11 -101 23 -151 26 -88 7 -89 6 -67 -11 13 -10 35 -28 50 -39 l26
-22 -39 -12 c-87 -26 -127 -28 -314 -19 -107 5 -196 7 -198 5 -3 -2 28 -21 67
-42 70 -36 130 -83 130 -101 0 -13 -251 -33 -407 -33 -73 0 -133 -3 -133 -7 1
-5 35 -24 77 -43 l76 -35 -99 -11 c-79 -9 -122 -21 -214 -58 l-115 -48 -180
22 c-99 11 -209 25 -245 30 -221 33 -454 52 -670 55 -241 3 -439 21 -610 55
-52 10 -122 21 -156 25 -33 3 -89 14 -125 24 -52 15 -63 22 -61 37 1 11 5 35
8 55 l6 36 -113 11 c-63 6 -143 14 -179 17 -36 2 -96 11 -135 19 -38 8 -131
22 -205 31 -74 9 -138 19 -143 24 -11 11 42 32 104 40 29 3 54 11 56 17 5 14
-100 34 -178 34 -30 0 -71 5 -91 11 -53 14 -50 41 11 100 66 63 110 85 212
103 46 8 122 29 169 46 85 31 263 82 331 94 48 8 286 9 300 1 7 -5 5 -14 -4
-29 -8 -12 -20 -47 -27 -78 l-13 -56 -136 -1 c-146 -1 -251 -10 -251 -20 0 -4
69 -15 154 -24 177 -20 233 -34 277 -71 l31 -26 -53 0 c-71 0 -53 -13 51 -38
215 -52 485 -89 730 -102 102 -6 250 -19 330 -30 260 -36 350 -41 427 -25 37
8 181 31 318 51 213 32 281 38 459 41 116 2 211 5 213 7 9 9 -294 45 -537 64
-114 9 -114 13 0 31 92 14 153 48 170 93 6 18 16 43 20 54 7 18 24 25 97 38
48 9 113 23 143 31 54 13 53 13 -92 14 l-147 1 -6 38 c-4 20 -10 47 -16 60 -5
13 -9 34 -9 47 0 21 4 23 38 19 20 -2 118 -6 217 -8z m-1733 -333 c30 -33 58
-74 58 -85 0 -9 -115 -11 -147 -2 -28 8 -36 29 -22 57 33 63 70 73 111 30z
m649 17 c16 -9 49 -59 49 -75 0 -3 -15 -12 -34 -20 -37 -16 -206 -33 -206 -21
0 19 43 87 66 105 29 23 92 28 125 11z m-357 -24 c33 -14 86 -78 86 -103 0
-18 -61 -26 -144 -18 -61 5 -75 10 -79 25 -10 39 48 108 91 110 7 0 28 -6 46
-14z m-2011 -153 c8 -10 17 -29 19 -43 2 -19 16 -31 53 -50 44 -22 67 -25 200
-30 125 -5 146 -8 124 -17 -15 -6 -42 -25 -60 -40 -48 -41 -85 -63 -106 -63
-10 0 -76 22 -148 49 -145 53 -172 76 -160 129 7 32 40 82 54 82 4 0 15 -8 24
-17z m4200 -132 c16 -6 10 -13 -33 -41 -100 -67 -132 -80 -186 -80 -55 0 -104
13 -104 28 0 5 37 16 83 26 45 10 93 25 107 34 21 13 95 41 110 41 3 0 13 -4
23 -8z m-3505 -51 c35 -4 66 -10 68 -13 3 -2 -16 -17 -41 -31 -25 -15 -43 -31
-41 -35 5 -7 64 -19 184 -36 23 -4 42 -11 42 -17 0 -6 -13 -26 -30 -44 -17
-20 -27 -40 -24 -49 9 -21 -12 -19 -81 11 -33 14 -100 39 -150 56 -49 16 -98
34 -107 39 -23 12 -22 43 2 98 l20 44 48 -7 c26 -4 75 -11 110 -16z m388 -155
c83 -24 401 -85 452 -86 76 -1 96 -15 33 -22 -71 -8 -103 -30 -95 -62 10 -40
-18 -41 -139 -3 -162 51 -214 65 -284 79 -35 6 -63 14 -63 16 0 25 25 93 34
93 7 0 35 -7 62 -15z m1064 -99 c58 -8 137 -20 175 -27 l70 -13 -55 -7 c-30
-4 -143 -10 -250 -13 -107 -4 -215 -10 -240 -13 l-45 -6 55 -17 c51 -15 53
-17 33 -28 -27 -15 -115 -15 -165 -2 -21 6 -43 20 -49 32 -17 33 9 46 109 54
48 3 121 17 162 29 94 28 77 27 200 11z m178 -121 c1 -1 -14 -10 -34 -20 -31
-15 -53 -16 -128 -11 -126 10 -138 28 -26 39 34 4 182 -3 188 -8z"/>
<path d="M4330 8696 c0 -8 -9 -21 -20 -29 -17 -12 -18 -16 -6 -20 8 -3 16 -1
18 5 3 8 10 7 26 -1 14 -8 22 -8 22 -1 0 5 -4 10 -10 10 -5 0 -10 9 -10 19 0
11 -4 23 -10 26 -5 3 -10 -1 -10 -9z"/>
<path d="M4255 8567 c-6 -13 -14 -17 -31 -13 -13 4 -24 2 -24 -3 0 -15 38 -20
56 -7 9 7 14 19 12 27 -5 11 -7 10 -13 -4z"/>
<path d="M4706 8545 c4 -9 11 -14 16 -13 15 5 11 23 -6 26 -11 2 -14 -2 -10
-13z"/>
<path d="M4661 8521 c-11 -7 -9 -10 10 -13 16 -2 24 -9 23 -21 -1 -9 2 -17 6
-17 5 0 15 -2 22 -5 9 -4 14 2 15 15 1 11 -4 20 -12 20 -7 0 -15 7 -19 15 -6
17 -24 19 -45 6z"/>
<path d="M4137 8503 c-12 -11 -8 -23 7 -23 8 0 17 -8 20 -17 5 -12 9 -14 18
-5 9 9 7 17 -10 32 -23 22 -26 23 -35 13z"/>
<path d="M4210 8502 c0 -12 19 -26 26 -19 2 2 -2 10 -11 17 -9 8 -15 8 -15 2z"/>
<path d="M4263 8443 c-22 -8 -14 -30 12 -35 22 -5 23 -3 13 16 -13 26 -11 24
-25 19z"/>
<path d="M4300 8446 c0 -2 7 -7 16 -10 8 -3 12 -2 9 4 -6 10 -25 14 -25 6z"/>
<path d="M4580 8415 c0 -8 4 -15 10 -15 5 0 7 7 4 15 -4 8 -8 15 -10 15 -2 0
-4 -7 -4 -15z"/>
<path d="M4000 8410 c0 -5 5 -10 10 -10 6 0 10 5 10 10 0 6 -4 10 -10 10 -5 0
-10 -4 -10 -10z"/>
<path d="M4656 8395 c7 -28 -7 -33 -26 -10 -11 13 -15 12 -31 -9 -24 -30 -24
-35 0 -33 11 0 18 4 15 8 -2 3 14 9 36 13 43 7 49 16 24 40 -21 22 -25 20 -18
-9z"/>
<path d="M4233 8375 c-8 -23 4 -30 22 -12 19 20 19 27 0 27 -9 0 -18 -7 -22
-15z"/>
<path d="M4385 8380 c3 -5 10 -10 16 -10 5 0 9 5 9 10 0 6 -7 10 -16 10 -8 0
-12 -4 -9 -10z"/>
<path d="M4727 8369 c7 -7 15 -10 18 -7 3 3 -2 9 -12 12 -14 6 -15 5 -6 -5z"/>
<path d="M4283 8347 c2 -27 13 -32 62 -27 27 3 28 5 15 29 -6 13 -16 19 -23
14 -8 -5 -8 -8 1 -11 18 -6 15 -22 -4 -22 -9 0 -24 10 -34 22 l-18 23 1 -28z"/>
<path d="M4182 8344 c4 -21 22 -23 26 -1 2 10 -3 17 -13 17 -10 0 -15 -6 -13
-16z"/>
<path d="M4390 8319 c0 -7 10 -9 25 -7 22 5 24 2 20 -21 -3 -14 -2 -20 1 -13
3 6 14 12 25 12 21 0 25 15 7 26 -20 13 -78 15 -78 3z"/>
<path d="M4387 8279 c-9 -5 -22 -7 -27 -4 -6 3 -10 -3 -10 -13 0 -15 5 -19 20
-15 21 6 25 -3 11 -26 -6 -10 -13 -11 -29 -2 -27 14 -32 14 -32 -3 0 -19 26
-27 57 -19 21 5 25 3 20 -9 -4 -12 -1 -14 13 -11 10 3 21 0 24 -6 4 -6 12 -11
17 -11 6 0 7 5 4 10 -3 6 1 10 10 10 9 0 15 6 12 13 -2 6 -14 11 -25 9 -13 -2
-23 2 -24 10 0 7 -2 18 -3 23 -2 6 -3 20 -4 33 -1 24 -7 26 -34 11z"/>
<path d="M4262 8273 c-6 -2 -10 -9 -6 -14 8 -14 21 -11 28 6 6 15 1 17 -22 8z"/>
<path d="M4456 8261 c-3 -5 1 -14 9 -21 12 -10 15 -10 15 3 0 19 -16 31 -24
18z"/>
<path d="M4430 8230 c0 -5 5 -10 11 -10 5 0 7 5 4 10 -3 6 -8 10 -11 10 -2 0
-4 -4 -4 -10z"/>
<path d="M4245 8220 c3 -5 8 -10 11 -10 2 0 4 5 4 10 0 6 -5 10 -11 10 -5 0
-7 -4 -4 -10z"/>
<path d="M4750 8208 c6 -7 19 -24 30 -37 19 -22 20 -23 20 -4 0 21 -29 53 -49
53 -8 0 -9 -4 -1 -12z"/>
<path d="M4110 8201 c0 -5 7 -11 15 -15 9 -3 15 0 15 9 0 8 -7 15 -15 15 -8 0
-15 -4 -15 -9z"/>
<path d="M4640 8172 c0 -12 7 -25 15 -29 27 -10 30 6 7 30 l-22 21 0 -22z"/>
<path d="M4715 8173 c-3 -10 -1 -19 4 -21 6 -2 11 -10 11 -18 0 -8 5 -14 10
-14 13 0 13 37 0 45 -6 4 -8 11 -5 16 4 5 2 9 -3 9 -6 0 -13 -8 -17 -17z"/>
<path d="M3960 8172 c0 -5 7 -16 16 -23 14 -12 16 -11 13 5 -4 20 -29 35 -29
18z"/>
<path d="M4230 8170 c0 -5 5 -10 10 -10 6 0 10 5 10 10 0 6 -4 10 -10 10 -5 0
-10 -4 -10 -10z"/>
<path d="M4312 8153 c-7 -12 -6 -22 3 -30 10 -9 14 -7 18 13 5 30 -8 41 -21
17z"/>
<path d="M3790 8151 c0 -5 7 -11 14 -14 10 -4 13 -1 9 9 -6 15 -23 19 -23 5z"/>
<path d="M4350 8140 c0 -5 14 -13 32 -19 24 -9 34 -8 40 1 14 23 9 27 -32 26
-22 0 -40 -4 -40 -8z"/>
<path d="M3840 8126 c0 -14 24 -29 33 -19 3 3 3 11 0 19 -7 18 -33 18 -33 0z"/>
<path d="M4015 8118 c-7 -15 -18 -22 -32 -21 -13 2 -23 -4 -26 -16 -3 -14 0
-17 14 -14 11 3 21 -1 25 -11 3 -9 12 -16 20 -16 8 0 14 -7 14 -15 0 -8 9 -15
20 -15 21 0 27 15 10 25 -6 3 -7 17 -4 31 7 26 -13 35 -22 9 -4 -8 -12 -15
-20 -15 -21 0 -17 10 11 32 23 18 36 46 16 34 -5 -4 -11 -2 -13 4 -2 6 -8 0
-13 -12z"/>
<path d="M4187 8133 c-13 -12 -7 -22 12 -20 11 0 17 6 14 14 -6 14 -16 17 -26
6z"/>
<path d="M4452 8128 c-14 -14 -16 -28 -3 -28 9 0 24 30 18 36 -2 2 -9 -2 -15
-8z"/>
<path d="M4270 8119 c0 -5 5 -7 10 -4 6 3 10 8 10 11 0 2 -4 4 -10 4 -5 0 -10
-5 -10 -11z"/>
<path d="M4586 8121 c-7 -11 3 -41 14 -41 11 0 18 22 12 38 -5 14 -18 16 -26
3z"/>
<path d="M4135 8110 c-3 -5 -1 -10 4 -10 6 0 11 5 11 10 0 6 -2 10 -4 10 -3 0
-8 -4 -11 -10z"/>
<path d="M4540 8105 c0 -16 16 -20 24 -6 3 5 -1 11 -9 15 -9 3 -15 0 -15 -9z"/>
<path d="M4640 8106 c0 -2 7 -9 15 -16 9 -7 15 -8 15 -2 0 5 -7 12 -15 16 -8
3 -15 4 -15 2z"/>
<path d="M4362 8082 c-5 -9 -7 -23 -5 -29 7 -21 -15 -15 -27 6 -6 12 -17 17
-29 14 -20 -5 -38 -33 -22 -33 5 0 11 6 14 13 3 8 12 5 30 -11 16 -16 27 -20
32 -12 4 6 15 8 24 5 14 -4 18 1 18 24 0 34 -22 49 -35 23z"/>
<path d="M4090 8080 c1 -16 19 -30 33 -24 10 3 28 -1 41 -10 21 -13 26 -13 36
-1 10 12 9 15 -4 15 -9 0 -16 5 -16 11 0 6 -9 9 -20 6 -11 -3 -20 -2 -20 3 0
4 -11 7 -25 6 -14 0 -25 -3 -25 -6z"/>
<path d="M4668 8048 c-25 -35 -35 -58 -24 -58 18 0 36 16 36 32 0 12 6 19 18
17 47 -4 54 7 19 32 -21 15 -23 15 -49 -23z"/>
<path d="M4760 8057 c0 -7 9 -13 20 -13 24 0 26 11 4 20 -22 8 -24 8 -24 -7z"/>
<path d="M4550 8050 c0 -5 4 -10 9 -10 6 0 13 5 16 10 3 6 -1 10 -9 10 -9 0
-16 -4 -16 -10z"/>
<path d="M4430 8026 c0 -9 5 -16 10 -16 6 0 10 4 10 9 0 6 -4 13 -10 16 -5 3
-10 -1 -10 -9z"/>
<path d="M4615 8030 c-3 -5 -1 -10 4 -10 6 0 11 5 11 10 0 6 -2 10 -4 10 -3 0
-8 -4 -11 -10z"/>
<path d="M3855 8020 c27 -12 35 -12 35 0 0 6 -12 10 -27 9 -25 0 -26 -1 -8 -9z"/>
<path d="M3969 7998 c-9 -17 -9 -24 5 -33 8 -7 13 -14 11 -17 -3 -3 1 -11 10
-18 20 -17 32 -5 15 15 -7 8 -8 15 -3 15 5 0 10 14 10 30 0 37 -30 42 -48 8z"/>
<path d="M4096 7988 c-10 -33 -21 -36 -36 -8 -12 23 -36 17 -36 -9 0 -12 6
-17 17 -14 9 3 26 0 37 -6 14 -7 23 -8 27 -1 12 20 26 10 15 -11 -9 -15 -8
-24 2 -36 10 -13 10 -17 1 -20 -14 -5 -18 -23 -5 -23 10 0 42 58 34 63 -4 2
-1 2 5 1 7 -2 23 1 35 5 19 7 20 10 7 15 -9 4 -20 6 -25 5 -23 -4 -34 3 -34
21 0 13 -5 17 -14 14 -8 -3 -16 2 -19 13 -3 14 -5 12 -11 -9z"/>
<path d="M4250 7979 c0 -19 -2 -21 -10 -9 -5 8 -12 11 -17 7 -13 -13 16 -24
58 -22 23 1 39 -2 39 -9 0 -6 5 -4 10 4 10 16 -12 35 -33 27 -7 -2 -20 2 -29
11 -17 14 -18 13 -18 -9z"/>
<path d="M4183 7983 c-15 -5 -17 -23 -4 -23 5 0 11 7 15 15 3 8 4 15 3 14 -1
0 -8 -3 -14 -6z"/>
<path d="M4501 7974 c0 -11 3 -14 6 -6 3 7 2 16 -1 19 -3 4 -6 -2 -5 -13z"/>
<path d="M4570 7977 c0 -17 -15 -23 -23 -9 -2 4 -2 2 -1 -5 2 -7 -4 -19 -12
-28 -14 -13 -14 -15 0 -15 25 0 19 -18 -6 -22 -16 -2 -24 -11 -26 -28 -3 -20
-2 -22 11 -12 15 13 46 6 60 -12 5 -6 5 -1 2 12 -5 18 -2 22 14 22 13 0 21 -6
21 -17 0 -15 2 -14 14 3 17 23 2 48 -25 41 -21 -6 -30 20 -15 45 8 13 7 21 -2
30 -9 9 -12 8 -12 -5z"/>
<path d="M4610 7984 c0 -17 17 -36 24 -26 3 5 -1 15 -9 22 -8 7 -15 9 -15 4z"/>
<path d="M4660 7981 c0 -6 7 -16 15 -23 39 -33 46 -41 41 -54 -3 -9 2 -14 14
-14 14 0 20 -7 20 -21 0 -20 1 -20 24 -6 18 12 26 13 35 4 17 -17 61 -16 61 1
0 10 -7 13 -21 9 -13 -4 -22 0 -26 11 -4 9 -11 20 -17 24 -8 5 -8 8 0 8 5 0
19 -7 30 -15 27 -20 36 -18 29 5 -4 11 -3 20 2 19 19 -3 33 2 33 12 0 7 -14 8
-42 4 -57 -10 -79 -22 -72 -40 4 -10 0 -15 -11 -15 -10 0 -15 5 -12 13 3 7
-11 20 -33 31 -22 10 -37 25 -36 34 0 9 -7 18 -16 20 -10 2 -18 -1 -18 -7z"/>
<path d="M4047 7932 c-11 -2 -16 -10 -13 -18 3 -7 0 -16 -6 -20 -7 -5 -5 -12
7 -21 25 -18 38 -17 31 3 -4 11 -2 15 7 11 9 -3 13 2 12 14 -2 25 -16 37 -38
31z"/>
<path d="M4390 7923 c0 -5 4 -15 10 -23 11 -18 25 -7 17 15 -6 15 -27 21 -27
8z"/>
<path d="M4630 7921 c0 -5 7 -12 16 -15 21 -8 21 -8 27 7 3 8 -4 14 -19 15
-13 1 -24 -2 -24 -7z"/>
<path d="M4173 7855 c2 -36 11 -54 28 -55 3 0 5 16 5 35 0 21 -5 35 -12 35 -7
0 -15 6 -18 13 -3 6 -4 -6 -3 -28z"/>
<path d="M3990 7855 c0 -8 4 -15 10 -15 5 0 7 7 4 15 -4 8 -8 15 -10 15 -2 0
-4 -7 -4 -15z"/>
<path d="M4088 7854 c-6 -23 17 -50 28 -33 3 6 2 14 -3 18 -6 3 -12 13 -15 21
-3 11 -6 9 -10 -6z"/>
<path d="M4030 7840 c0 -5 5 -10 10 -10 6 0 10 5 10 10 0 6 -4 10 -10 10 -5 0
-10 -4 -10 -10z"/>
<path d="M4718 7843 c6 -2 12 -11 12 -19 0 -8 5 -14 11 -14 6 0 8 7 5 16 -3 9
-6 18 -6 20 0 2 -8 4 -17 3 -11 0 -13 -3 -5 -6z"/>
<path d="M4645 7830 c-4 -7 -3 -15 2 -19 5 -3 14 -14 20 -25 10 -17 10 -17 15
2 7 25 -26 61 -37 42z"/>
<path d="M2300 7230 c0 -5 9 -10 20 -10 11 0 20 5 20 10 0 6 -9 10 -20 10 -11
0 -20 -4 -20 -10z"/>
<path d="M2140 7220 c-8 -5 -10 -10 -5 -10 6 0 17 5 25 10 8 5 11 10 5 10 -5
0 -17 -5 -25 -10z"/>
<path d="M2400 7214 c0 -10 6 -14 14 -11 7 3 19 0 25 -6 7 -7 11 -7 11 -1 0 6
-11 16 -25 22 -21 10 -25 9 -25 -4z"/>
<path d="M2383 7192 c-7 -5 -5 -15 8 -31 10 -13 19 -19 19 -13 0 6 3 17 6 25
6 16 -17 29 -33 19z"/>
<path d="M2576 7143 c5 -5 12 -12 15 -16 3 -5 9 -2 12 7 5 12 0 16 -15 16 -12
0 -17 -3 -12 -7z"/>
<path d="M2336 7131 c-4 -7 -5 -15 -2 -18 9 -9 19 4 14 18 -4 11 -6 11 -12 0z"/>
<path d="M2535 7054 c9 -9 19 -13 23 -10 3 4 0 11 -8 16 -24 15 -33 11 -15 -6z"/>
<path d="M2614 7024 c9 -8 16 -23 17 -32 0 -11 2 -12 6 -4 2 6 11 12 19 12 35
0 6 28 -39 37 -17 3 -17 2 -3 -13z"/>
<path d="M2494 7020 c-12 -4 -24 -15 -27 -24 -5 -13 0 -15 26 -12 18 2 40 4
50 5 18 1 25 31 7 31 -5 0 -10 -4 -10 -10 0 -5 -7 -10 -16 -10 -10 0 -14 6
-10 15 3 8 4 15 3 14 -1 0 -11 -4 -23 -9z"/>
<path d="M2586 7013 c-3 -4 -6 -12 -6 -19 0 -14 32 -12 37 3 4 12 -22 25 -31
16z"/>
<path d="M2670 6982 c0 -15 18 -34 29 -31 7 3 3 11 -9 21 -11 10 -20 14 -20
10z"/>
<path d="M2386 6962 c-6 -10 30 -52 44 -52 5 0 7 7 4 15 -4 8 -10 15 -15 15
-5 0 -9 7 -9 15 0 16 -16 20 -24 7z"/>
<path d="M2603 6950 c-17 -27 3 -37 28 -14 15 13 16 19 7 26 -19 11 -22 10
-35 -12z"/>
<path d="M2450 6919 c9 -16 14 -18 26 -9 17 15 9 30 -17 30 -17 0 -18 -3 -9
-21z"/>
<path d="M2650 6930 c0 -5 5 -10 10 -10 6 0 10 5 10 10 0 6 -4 10 -10 10 -5 0
-10 -4 -10 -10z"/>
<path d="M2693 6898 c3 -9 0 -19 -7 -21 -6 -2 -8 -8 -4 -12 5 -5 17 0 27 9 11
10 25 15 31 11 7 -5 7 0 -1 13 -16 25 -52 25 -46 0z"/>
<path d="M2661 6894 c0 -11 3 -14 6 -6 3 7 2 16 -1 19 -3 4 -6 -2 -5 -13z"/>
<path d="M2450 6883 c0 -2 8 -11 19 -22 17 -17 19 -17 29 -1 9 15 7 19 -19 22
-16 3 -29 3 -29 1z"/>
<path d="M2692 6851 c-10 -6 -10 -10 3 -21 13 -11 15 -9 15 9 0 24 0 24 -18
12z"/>
<path d="M2516 6795 c18 -28 24 -31 24 -12 0 7 -9 18 -20 25 -20 12 -21 12 -4
-13z"/>
<path d="M2560 6792 c0 -17 5 -23 17 -20 9 2 18 9 21 17 3 9 0 11 -8 6 -7 -4
-16 -2 -21 6 -6 10 -9 8 -9 -9z"/>
<path d="M2770 5910 c6 -11 13 -20 16 -20 2 0 0 9 -6 20 -6 11 -13 20 -16 20
-2 0 0 -9 6 -20z"/>
<path d="M3150 7710 c0 -5 5 -10 11 -10 5 0 7 5 4 10 -3 6 -8 10 -11 10 -2 0
-4 -4 -4 -10z"/>
<path d="M3975 7230 c-3 -5 -1 -10 4 -10 6 0 11 5 11 10 0 6 -2 10 -4 10 -3 0
-8 -4 -11 -10z"/>
<path d="M3904 7209 c-3 -6 0 -15 7 -20 13 -7 28 5 29 24 0 11 -28 8 -36 -4z"/>
<path d="M4050 7210 c11 -7 60 -2 60 6 0 2 -16 3 -35 2 -20 -1 -31 -4 -25 -8z"/>
<path d="M4858 7143 c7 -3 16 -2 19 1 4 3 -2 6 -13 5 -11 0 -14 -3 -6 -6z"/>
<path d="M3485 6939 c-49 -29 -109 -108 -93 -124 2 -2 26 7 53 20 60 31 127
33 171 6 18 -11 64 -63 103 -115 74 -100 128 -162 135 -155 4 4 -94 186 -147
276 -34 55 -95 95 -155 100 -26 2 -56 -2 -67 -8z"/>
<path d="M5075 6889 c-11 -6 -31 -26 -44 -45 -27 -38 -104 -240 -98 -257 2 -6
25 23 52 64 71 106 117 149 159 149 44 0 81 29 72 57 -12 37 -92 56 -141 32z"/>
<path d="M3490 6779 c-44 -14 -60 -27 -60 -50 0 -12 7 -19 20 -19 18 0 19 -3
8 -20 -11 -16 -9 -26 7 -57 11 -20 20 -41 20 -46 0 -38 124 -51 168 -17 14 11
29 20 34 20 19 0 53 -47 83 -113 19 -41 35 -65 41 -61 17 10 3 87 -25 141 -31
61 -123 181 -156 205 -32 22 -95 30 -140 17z m40 -83 c0 -3 -4 -8 -10 -11 -5
-3 -10 -1 -10 4 0 6 5 11 10 11 6 0 10 -2 10 -4z m50 -56 c-15 -28 -63 -24
-69 5 -3 19 -3 19 16 3 19 -17 20 -17 39 1 24 23 29 20 14 -9z m44 -65 c-6
-16 -24 -21 -24 -7 0 11 11 22 21 22 5 0 6 -7 3 -15z m-34 -5 c0 -5 -10 -10
-22 -9 -22 0 -22 1 -3 9 11 5 21 9 23 9 1 1 2 -3 2 -9z"/>
<path d="M4305 6736 c-56 -13 -195 -78 -155 -72 14 2 54 11 90 21 103 28 288
17 403 -22 106 -37 100 -17 -10 34 -106 49 -228 63 -328 39z"/>
<path d="M3354 6671 c19 -146 94 -210 231 -199 44 4 62 11 83 31 25 26 25 50
-1 29 -39 -33 -180 -31 -217 3 -10 9 -33 51 -51 93 -43 101 -53 111 -45 43z"/>
<path d="M5046 6669 c-27 -30 -59 -67 -71 -84 -35 -46 -65 -140 -64 -198 l0
-52 17 35 c70 152 92 190 110 190 6 0 12 -7 12 -15 0 -17 49 -45 79 -45 35 0
34 20 -1 21 l-33 1 33 8 c44 10 70 35 82 79 22 78 10 96 -73 107 -42 6 -44 5
-91 -47z m124 -45 c0 -16 -45 -20 -55 -5 -7 12 25 30 42 24 7 -3 13 -11 13
-19z"/>
<path d="M5155 6470 c-22 -24 -46 -25 -86 -4 -29 14 -31 14 -27 -2 4 -23 64
-37 98 -23 14 5 31 18 38 29 16 26 0 26 -23 0z"/>
<path d="M4300 6454 c-78 -17 -180 -55 -180 -68 0 -4 10 -6 23 -3 142 35 386
34 517 -2 120 -33 133 -24 33 24 -128 60 -263 77 -393 49z"/>
<path d="M4325 6296 c-80 -17 -160 -49 -219 -86 -60 -38 -55 -47 10 -19 173
74 441 78 606 9 68 -29 77 -25 27 14 -97 77 -283 113 -424 82z"/>
<path d="M4355 6026 c-33 -8 -79 -21 -102 -29 -45 -15 -137 -66 -131 -73 2 -2
32 5 65 15 165 50 364 52 499 5 41 -14 78 -24 80 -21 10 10 -65 58 -127 83
-80 31 -199 40 -284 20z"/>
<path d="M4368 5785 c-98 -17 -279 -84 -228 -85 8 0 51 7 95 16 115 23 313 23
394 0 68 -18 155 -59 166 -76 3 -5 14 -10 22 -10 13 0 9 8 -12 30 -100 105
-272 154 -437 125z"/>
<path d="M4300 5491 c-89 -20 -166 -48 -157 -58 4 -3 43 0 88 7 87 12 299 15
346 4 46 -10 113 -33 144 -50 52 -26 55 -9 5 29 -106 80 -258 105 -426 68z"/>
<path d="M4355 5306 c-89 -25 -148 -52 -140 -65 3 -5 20 -5 37 -1 18 4 62 15
98 24 83 20 229 20 304 1 33 -9 61 -14 63 -11 10 10 -69 45 -134 60 -93 21
-130 19 -228 -8z"/>
<path d="M4420 5144 c-96 -17 -203 -58 -254 -99 -34 -26 -12 -25 83 5 162 52
309 50 423 -4 29 -14 54 -23 57 -21 10 11 -48 58 -104 85 -59 28 -151 43 -205
34z"/>
<path d="M4405 4878 c-16 -6 -65 -24 -107 -40 -127 -48 -90 -64 52 -23 30 9
100 19 155 22 95 5 142 -2 218 -32 32 -13 17 10 -21 31 -84 49 -222 68 -297
42z"/>
<path d="M5982 4608 c6 -18 28 -21 28 -4 0 9 -7 16 -16 16 -9 0 -14 -5 -12
-12z"/>
<path d="M4370 7138 c0 -18 18 -34 28 -24 3 4 -2 14 -11 23 -16 16 -17 16 -17
1z"/>
<path d="M4410 7130 c0 -5 7 -10 16 -10 8 0 12 5 9 10 -3 6 -10 10 -16 10 -5
0 -9 -4 -9 -10z"/>
<path d="M686 4622 c-3 -6 -1 -14 5 -17 15 -10 25 3 12 16 -7 7 -13 7 -17 1z"/>
<path d="M6440 5869 c-177 -48 -321 -183 -380 -358 -68 -204 -13 -452 130
-585 74 -68 112 -88 216 -116 191 -50 388 -5 526 119 199 179 243 423 120 671
-112 227 -361 336 -612 269z m473 -182 c132 -132 154 -395 49 -589 -28 -54
-46 -59 -108 -33 -41 17 -41 14 -5 150 11 44 21 92 21 107 0 15 10 36 22 48
20 19 76 40 106 40 17 0 11 20 -10 34 -24 15 -97 -12 -134 -50 -25 -26 -33
-45 -39 -89 -8 -64 -35 -151 -59 -187 -16 -25 -45 -38 -231 -106 -132 -48
-211 -72 -240 -72 -51 0 -138 117 -152 204 -10 62 109 224 222 301 30 21 58
35 61 32 4 -4 -8 -39 -26 -79 -40 -89 -82 -210 -75 -216 6 -7 5 -9 47 78 38
78 153 218 243 298 27 24 75 55 107 70 32 15 58 30 58 33 0 4 -24 16 -52 27
l-53 21 79 0 c65 1 77 3 72 16 -3 8 -9 22 -12 30 -10 24 63 -22 109 -68z"/>
<path d="M7108 4753 c7 -3 16 -2 19 1 4 3 -2 6 -13 5 -11 0 -14 -3 -6 -6z"/>
<path d="M7068 4743 c7 -3 16 -2 19 1 4 3 -2 6 -13 5 -11 0 -14 -3 -6 -6z"/>
<path d="M3870 2254 c-58 -31 -132 -74 -166 -95 -38 -24 -72 -39 -92 -39 -54
0 -35 -17 31 -29 111 -19 212 -9 288 30 39 19 153 119 145 126 -2 3 -26 -5
-53 -17 -64 -29 -133 -51 -133 -42 0 5 18 26 41 47 42 41 66 75 52 75 -4 0
-55 -26 -113 -56z"/>
<path d="M4091 2106 c-38 -46 -197 -78 -394 -80 -123 -1 -127 -2 -106 -18 38
-32 148 -60 235 -60 66 -1 91 4 135 24 68 31 124 79 138 118 11 33 9 37 -8 16z"/>
<path d="M4040 1943 c-36 -18 -96 -37 -135 -44 -73 -12 -203 -7 -264 11 -19 5
-37 8 -39 6 -8 -9 106 -67 170 -87 65 -20 71 -20 143 -6 80 17 149 56 179 102
31 47 15 52 -54 18z"/>
<path d="M4045 1793 c-127 -50 -265 -54 -396 -13 -90 28 -101 25 -46 -14 68
-49 137 -75 225 -88 71 -10 82 -9 135 12 59 22 119 67 138 102 6 11 9 21 7 22
-2 2 -30 -8 -63 -21z"/>
<path d="M4085 1615 c-107 -59 -175 -75 -309 -75 -125 0 -128 -7 -22 -46 143
-52 280 -25 365 72 86 97 77 109 -34 49z"/>
<path d="M4737 2358 c-10 -70 63 -192 136 -227 51 -25 157 -40 157 -23 0 5
-21 20 -47 33 -65 31 -174 137 -204 198 -13 28 -27 50 -30 51 -4 0 -9 -15 -12
-32z"/>
<path d="M4614 2249 c9 -67 38 -141 72 -186 30 -39 93 -72 138 -73 38 0 146
30 146 41 0 4 -26 13 -57 19 -32 7 -78 23 -103 35 -54 27 -139 115 -169 173
-12 23 -24 42 -27 42 -4 0 -4 -23 0 -51z"/>
<path d="M4540 1998 c0 -28 55 -116 91 -145 105 -84 273 -64 393 48 26 23 45
44 43 46 -3 2 -31 -7 -63 -19 -49 -19 -77 -23 -164 -22 -92 1 -112 4 -165 28
-33 15 -74 39 -92 52 -36 27 -43 29 -43 12z"/>
<path d="M5354 1435 c-10 -8 -14 -15 -7 -15 19 0 43 11 43 21 0 13 -14 11 -36
-6z"/>
<path d="M2110 1175 c-7 -9 -10 -18 -7 -22 8 -7 37 15 37 28 0 14 -16 11 -30
-6z"/>
<path d="M2180 1178 c0 -7 5 -20 10 -28 8 -12 10 -11 10 7 0 12 -4 25 -10 28
-5 3 -10 0 -10 -7z"/>
<path d="M2545 970 c-7 -21 0 -40 16 -40 5 0 9 14 9 30 0 34 -15 40 -25 10z"/>
<path d="M4938 883 c-18 -5 -23 -15 -12 -26 9 -8 54 14 48 24 -5 9 -8 10 -36
2z"/>
<path d="M5184 845 c-7 -17 4 -37 17 -30 12 8 12 45 -1 45 -6 0 -13 -7 -16
-15z"/>
<path d="M3856 800 c-35 -39 -45 -60 -28 -60 10 0 92 83 92 93 0 19 -31 3 -64
-33z"/>
<path d="M2960 818 c0 -16 19 -38 33 -38 4 0 7 10 5 22 -3 25 -38 39 -38 16z"/>
</g>
</svg>
